<!DOCTYPE svg PUBLIC "-//W3C//DTD SVG 1.1//EN" "http://www.w3.org/Graphics/SVG/1.1/DTD/svg11.dtd">
<!-- Uploaded to: SVG Repo, www.svgrepo.com, Transformed by: SVG Repo Mixer Tools -->
<svg height="93px" width="93px" version="1.1" id="Capa_1" xmlns="http://www.w3.org/2000/svg" xmlns:xlink="http://www.w3.org/1999/xlink" viewBox="0 0 19.14 19.14" xml:space="preserve" fill="#7d3b3b" stroke="#7d3b3b" stroke-width="0.07656" transform="matrix(1, 0, 0, 1, 0, 0)">
<g id="SVGRepo_bgCarrier" stroke-width="0"/>
<g id="SVGRepo_tracerCarrier" stroke-linecap="round" stroke-linejoin="round" stroke="#CCCCCC" stroke-width="0.03828"/>
<g id="SVGRepo_iconCarrier"> <g> <g> <path style="fill:#030104;" d="M19.14,3.041h-0.742c0.039,3.084-0.695,2.608-0.695,2.608s-1.02-0.42-1.516-0.146 c-1.463-1.231-3.418,0.993-3.418,0.993S7.417,13.746,0,15.992c1.273,0.809,15.837-3.107,17.375-6.576 c0.338-0.533,0.445-1.15,0.352-1.74c0.391-0.344,0.543-0.883,0.4-1.373C18.948,5.852,19.077,3.973,19.14,3.041z"/> <path style="fill:#030104;" d="M3.482,9.016c0.306,0.471,0.816,1.964,0.381,2.233c-1.631,0.5-1.222-1.996-1.83-2.166 c0.242,0.473-0.346,2.086,1.021,2.726c0.859,0.332,1.148,1.206,1.164,1.862c0.246-0.162,0.498-0.334,0.75-0.512 c0.08-0.218,4.918-3.232,7.416-6.718c-0.214-0.646-0.57-1.274-1.541-1.55c-0.9,0.093-1.485,0.811-2.322-0.242 c0.181,0.705,1.078,1.412,2.207,1.566c0.959,0.38,0.766,0.832,0.238,1.059c-0.572,0.236-0.641-0.628-1.045-0.861 C9.519,6.181,9.36,6.257,9.096,5.84C9.14,6.529,9.527,6.498,9.87,7.157c0.355,0.588-0.187,1.392-0.883,0.936 C8.304,7.4,9.419,7.441,8.7,6.306C7.494,4.394,6.316,4.54,5.826,3.45c0.25,0.951,0.585,0.902,1.381,2.207 C7.513,6.128,8.023,7.62,7.587,7.89c-1.631,0.5-1.724-2.749-2.332-2.918C5.478,5.408,5.502,7.561,6.496,8.28 c-0.75-0.005-1.05,0.296-1.702-0.523C4.975,8.462,5.371,8.667,6.5,8.821c0.958,0.379,1.267,1.584,0.739,1.812 c-0.572,0.237-0.641-0.628-1.045-0.861C5.792,9.541,5.635,9.617,5.369,9.199c0.044,0.69,0.43,0.658,0.774,1.317 c0.356,0.588-0.187,1.392-0.883,0.937c-0.683-0.693-0.069-1.405-0.789-2.539C3.457,7.307,2.212,7.928,1.597,6.559 C1.919,7.774,2.876,8.022,3.482,9.016z"/> </g> </g> </g>
</svg>