<?xml version="1.0" encoding="UTF-8"?>
<svg version="1.1" xmlns="http://www.w3.org/2000/svg" width="500" height="500">
<path d="M0 0 C165 0 330 0 500 0 C500 165 500 330 500 500 C335 500 170 500 0 500 C0 335 0 170 0 0 Z " fill="#FEDD58" transform="translate(0,0)"/>
<path d="M0 0 C1.12583496 0.00254791 2.25166992 0.00509583 3.41162109 0.00772095 C9.98601106 0.02514033 16.56016095 0.05764877 23.13439941 0.10540771 C25.47468882 0.12213821 27.81495658 0.13504902 30.15527344 0.14697266 C45.40060703 0.27158816 60.43132344 1.82167439 75.5625 3.5625 C76.51358643 3.67177826 77.46467285 3.78105652 78.44458008 3.89364624 C81.17628641 4.21171555 83.90666328 4.53917692 86.63671875 4.87109375 C87.45017258 4.96698792 88.2636264 5.06288208 89.10173035 5.16168213 C94.1603072 5.79372049 98.93931372 6.85490483 103.875 8.125 C105.20594679 8.27326804 106.539522 8.4004948 107.875 8.5 C114.24463467 9.12936765 120.37062575 10.91365601 126.54638672 12.52490234 C129.90045925 13.38926702 133.26435179 14.21258447 136.62768555 15.04003906 C165.89370564 22.26594776 203.49561551 34.30100825 220.71875 60.88671875 C224.43352231 68.07781514 224.92023223 75.17960188 223.875 83.125 C217.2167875 102.87076145 199.81955105 112.41590953 182.3125 121.421875 C177.90342653 123.60637049 173.48910399 125.42873132 168.875 127.125 C167.60208967 127.63870901 166.330032 128.15453329 165.05859375 128.671875 C151.79008625 133.94626658 138.14842093 137.1726547 124.24804688 140.33813477 C120.976633 141.10129103 117.72549151 141.92333555 114.47265625 142.76171875 C110.053749 143.87698598 105.77607383 144.67066452 101.25 145.1875 C97.23087428 145.65329272 93.31005452 146.22839083 89.359375 147.0859375 C83.20570311 148.34923161 77.00516576 148.92748276 70.75488281 149.50268555 C68.77353457 149.68533053 66.79300555 149.87679262 64.8125 150.06835938 C49.95004686 151.47367054 35.16644929 152.28956932 20.2421875 152.36328125 C19.48214479 152.36810453 18.72210209 152.37292782 17.93902779 152.37789726 C12.20935756 152.41372824 6.47977112 152.42978077 0.75 152.4375 C-0.08985821 152.43894516 -0.92971642 152.44039032 -1.79502487 152.44187927 C-26.81867139 152.4766926 -51.34436543 151.90265817 -76.125 148.125 C-78.43433388 147.81736625 -80.74421864 147.51383392 -83.0546875 147.21484375 C-125.77137992 141.45947781 -182.19295898 130.54136298 -211.0625 95.5625 C-217.36593879 86.89527166 -218.29494378 78.83623286 -217.125 68.125 C-212.83202713 53.04774746 -197.81455834 42.74030723 -184.82739258 35.44458008 C-147.82448502 15.45842976 -105.09117623 7.21838222 -63.625 2.75 C-62.89292328 2.67037018 -62.16084656 2.59074036 -61.40658569 2.50869751 C-40.97110094 0.33119556 -20.53682914 -0.05579004 0 0 Z " fill="#958649" transform="translate(250.125,153.875)"/>
<path d="M0 0 C4.27153319 3.24094105 6.58189407 5.75542852 8.5625 10.75 C9.0575 15.205 9.0575 15.205 9.5625 19.75 C1.3125 19.75 -6.9375 19.75 -15.4375 19.75 C-16.0975 18.1 -16.7575 16.45 -17.4375 14.75 C-20.66497055 12.59835297 -21.64255639 12.47754921 -25.375 12.5 C-26.22964844 12.49484375 -27.08429688 12.4896875 -27.96484375 12.484375 C-30.55724567 12.76286367 -32.20264234 13.44330828 -34.4375 14.75 C-34.48039755 16.68109581 -34.48039755 16.68109581 -33.4375 18.75 C-27.98012431 21.50412169 -22.3693614 22.87770371 -16.4375 24.25 C-8.25557925 26.14283241 -1.03177815 27.85777764 5.375 33.625 C6.12394531 34.28242188 6.87289062 34.93984375 7.64453125 35.6171875 C12.01696358 40.47940349 11.93542308 45.48469934 11.8125 51.74609375 C11.22523248 58.80248007 8.58744306 63.72505694 3.5625 68.75 C-6.09163605 76.82186672 -19.36182399 77.71293106 -31.4375 76.75 C-42.11598005 75.28806523 -52.20864046 73.5986677 -59.18359375 64.7421875 C-62.69065201 59.17022579 -63.4375 54.29852622 -63.4375 47.75 C-55.1875 47.75 -46.9375 47.75 -38.4375 47.75 C-37.4475 50.06 -36.4575 52.37 -35.4375 54.75 C-29.12466681 58.04989007 -22.22721916 56.85852558 -15.4375 55.75 C-15.9325 52.78 -15.9325 52.78 -16.4375 49.75 C-18.26861328 49.27820313 -18.26861328 49.27820313 -20.13671875 48.796875 C-53.36244276 40.18680804 -53.36244276 40.18680804 -60.4375 29.75 C-63.29237409 22.48304778 -63.05613358 16.05842042 -60.40625 8.8203125 C-57.15570169 1.87357619 -49.13350418 -2.45315451 -42.1875 -5.0625 C-28.58944086 -8.75189589 -11.88068579 -7.65109288 0 0 Z " fill="#31302E" transform="translate(119.4375,191.25)"/>
<path d="M0 0 C12.00375 -0.185625 12.00375 -0.185625 24.25 -0.375 C26.75110352 -0.42962402 29.25220703 -0.48424805 31.82910156 -0.54052734 C54.48328125 -0.82951812 54.48328125 -0.82951812 63.98681641 7.80517578 C69.60021204 13.62035446 71.20139423 19.32172222 71.5625 27.25 C71.37832845 35.71351972 68.94242693 41.71174614 63.21875 47.9375 C58.11618626 52.59247043 53.55955377 54.261228 46.60546875 54.1953125 C45.40341797 54.18886719 44.20136719 54.18242187 42.96289062 54.17578125 C41.71701172 54.15902344 40.47113281 54.14226562 39.1875 54.125 C37.28967773 54.11146484 37.28967773 54.11146484 35.35351562 54.09765625 C32.23559595 54.07412478 29.11777378 54.03825489 26 54 C26 62.58 26 71.16 26 80 C17.42 80 8.84 80 0 80 C0 53.6 0 27.2 0 0 Z " fill="#3A3A38" transform="translate(136,186)"/>
<path d="M0 0 C5.20597766 4.8644324 8.23036668 9.58218896 9.6875 16.625 C9.6875 19.265 9.6875 21.905 9.6875 24.625 C1.7675 24.625 -6.1525 24.625 -14.3125 24.625 C-15.3025 21.655 -16.2925 18.685 -17.3125 15.625 C-20.89158715 12.13320766 -23.60266865 10.47276666 -28.5625 10.3125 C-33.21824932 10.37986615 -35.79070134 11.43861074 -39.3125 14.625 C-42.92606345 20.07553007 -42.79649378 25.18529953 -42.75 31.5 C-42.76998047 32.45519531 -42.78996094 33.41039062 -42.81054688 34.39453125 C-42.80641328 40.42131415 -42.20473266 45.78650105 -38.3125 50.625 C-33.57212281 53.49123375 -28.69718355 53.13151871 -23.3125 52.625 C-19.94107796 51.4420449 -18.08885939 50.69711535 -16 47.8125 C-15.16452379 45.1541666 -14.77060293 42.37361759 -14.3125 39.625 C-6.3925 39.625 1.5275 39.625 9.6875 39.625 C9.6875 49.86696148 7.61271334 56.4848654 0.53125 63.94140625 C-7.55061275 71.32124279 -18.19166957 73.14119272 -28.8125 73 C-29.68519531 73.01160156 -30.55789063 73.02320313 -31.45703125 73.03515625 C-41.96948111 72.98843425 -51.40332806 70.03871989 -59.22265625 62.875 C-69.35630368 52.2034732 -69.86489477 39.13911929 -69.65234375 25.1796875 C-69.26577832 15.66793233 -66.13551006 7.24237853 -59.37890625 0.33984375 C-43.33332367 -12.97586656 -16.18280473 -13.5504816 0 0 Z " fill="#4A4A49" transform="translate(318.3125,194.375)"/>
<path d="M0 0 C4.01939063 -0.22363929 8.03634772 -0.38628486 12.06054688 -0.49438477 C13.42674856 -0.53946167 14.7925203 -0.6007517 16.15722656 -0.67895508 C27.4255047 -1.30816915 27.4255047 -1.30816915 31.09716797 1.74243164 C32.68598288 4.09011005 33.85047659 6.41119314 35 9 C35.83865626 10.46708893 36.68981381 11.92711847 37.5546875 13.37890625 C38.33186814 14.77135489 39.10535069 16.16587446 39.875 17.5625 C40.2771875 18.28501953 40.679375 19.00753906 41.09375 19.75195312 C42.06586025 21.49943703 43.03343476 23.24944295 44 25 C46.24270216 22.12608335 48.12041738 19.18550053 49.91796875 16.015625 C50.3977417 15.17290039 50.87751465 14.33017578 51.37182617 13.46191406 C51.97099854 12.40198242 52.5701709 11.34205078 53.1875 10.25 C55.105625 6.8675 57.02375 3.485 59 0 C68.24 0 77.48 0 87 0 C83.1021502 7.14605796 79.2178195 13.93824075 74.75 20.6875 C74.19151367 21.55922852 73.63302734 22.43095703 73.05761719 23.32910156 C70.51684612 27.28285984 67.98217198 31.11232959 64.96875 34.72265625 C54.8464388 47.47365707 56.68039711 63.50865989 57 79 C48.42 79 39.84 79 31 79 C31.12503906 76.99164063 31.25007813 74.98328125 31.37890625 72.9140625 C32.06729575 52.17569128 28.29598548 40.69586113 15.26806641 23.97900391 C11.71324029 19.3098986 8.5879727 14.38415362 5.4375 9.4375 C4.37372988 7.81117701 3.30993122 6.18487269 2.24609375 4.55859375 C0 1.12497692 0 1.12497692 0 0 Z " fill="#565655" transform="translate(328,187)"/>
<path d="M0 0 C8.58 0 17.16 0 26 0 C26 26.4 26 52.8 26 80 C17.42 80 8.84 80 0 80 C0 53.6 0 27.2 0 0 Z " fill="#434341" transform="translate(215,186)"/>
<path d="M0 0 C7.92 0 15.84 0 24 0 C24 7.59 24 15.18 24 23 C16.08 23 8.16 23 0 23 C0 15.41 0 7.82 0 0 Z " fill="#5D5D5D" transform="translate(417,243)"/>
<path d="M0 0 C13.00552486 -0.60773481 13.00552486 -0.60773481 17.375 2.0625 C19.44098839 5.79717131 19.75123045 7.79310949 19 12 C17.375 14.9375 17.375 14.9375 14 17 C9.2507486 17.41952617 4.7858301 17.22363692 0 17 C0 11.39 0 5.78 0 0 Z " fill="#83743B" transform="translate(162,205)"/>
<path d="M0 0 C-2.52235132 1.68156755 -5.03586642 3.16468006 -7.6875 4.625 C-8.49574219 5.07101563 -9.30398437 5.51703125 -10.13671875 5.9765625 C-10.75160156 6.31429687 -11.36648437 6.65203125 -12 7 C-11.02629214 3.39728091 -10.3100846 2.20222909 -7.125 0.125 C-4.03945364 -0.98579669 -2.94961915 -1.24791579 0 0 Z " fill="#7F6F30" transform="translate(76,187)"/>
</svg>
