<?xml version="1.0" encoding="UTF-8"?>
<svg version="1.1" xmlns="http://www.w3.org/2000/svg" width="1417" height="1890">
<path d="M0 0 C467.61 0 935.22 0 1417 0 C1417 623.7 1417 1247.4 1417 1890 C949.39 1890 481.78 1890 0 1890 C0 1266.3 0 642.6 0 0 Z " fill="#FEFEFE" transform="translate(0,0)"/>
<path d="M0 0 C3.67362602 0.00536331 7.34712957 0.00000936 11.02075195 -0.00634766 C23.21199594 -0.01015493 35.38562641 0.14217205 47.56958008 0.57958984 C48.67965927 0.6188559 49.78973846 0.65812195 50.93345642 0.69857788 C57.71041942 0.96850602 64.29530215 1.56170845 70.99926758 2.60302734 C74.7261466 3.12821384 78.43163037 3.47257753 82.18115234 3.7800293 C116.1586015 6.56645183 150.02467112 12.54275349 182.74145508 22.13037109 C183.57539795 22.37223145 184.40934082 22.6140918 185.26855469 22.86328125 C191.75965052 24.77307098 198.16055362 26.91743058 204.55395508 29.13037109 C205.56393555 29.47326172 206.57391602 29.81615234 207.61450195 30.16943359 C208.5909668 30.50716797 209.56743164 30.84490234 210.57348633 31.19287109 C211.447229 31.49322266 212.32097168 31.79357422 213.22119141 32.10302734 C215.92087086 33.20350697 218.26784099 34.59485364 220.74145508 36.13037109 C222.16257943 36.73304686 223.59969142 37.30025182 225.05395508 37.81787109 C226.27083008 38.25099609 227.48770508 38.68412109 228.74145508 39.13037109 C228.74145508 39.79037109 228.74145508 40.45037109 228.74145508 41.13037109 C229.60770508 41.41912109 230.47395508 41.70787109 231.36645508 42.00537109 C234.49145508 43.04703776 237.61645508 44.08870443 240.74145508 45.13037109 C240.74145508 45.79037109 240.74145508 46.45037109 240.74145508 47.13037109 C241.46333008 47.38947266 242.18520508 47.64857422 242.92895508 47.91552734 C245.85887669 49.18109071 248.16316212 50.69458012 250.74145508 52.56787109 C253.22754234 54.36639985 255.64934423 56.07781619 258.31567383 57.59912109 C260.88121619 59.21859389 262.58389808 60.8966173 264.55395508 63.19287109 C265.15852539 63.88509766 265.7630957 64.57732422 266.38598633 65.29052734 C267.74145508 67.13037109 267.74145508 67.13037109 267.74145508 69.13037109 C268.73145508 69.46037109 269.72145508 69.79037109 270.74145508 70.13037109 C277.96833796 80.09324405 280.32828259 88.91308936 278.74145508 101.13037109 C277.99294064 104.58859144 277.06618374 107.85009061 275.74145508 111.13037109 C275.08145508 111.13037109 274.42145508 111.13037109 273.74145508 111.13037109 C273.65895508 111.83162109 273.57645508 112.53287109 273.49145508 113.25537109 C272.56136503 116.82071629 270.97459139 119.22052681 268.74145508 122.13037109 C268.08145508 122.13037109 267.42145508 122.13037109 266.74145508 122.13037109 C266.53520508 122.68724609 266.32895508 123.24412109 266.11645508 123.81787109 C264.16462476 127.10049481 261.79914513 128.83710355 258.74145508 131.13037109 C258.08145508 131.13037109 257.42145508 131.13037109 256.74145508 131.13037109 C256.74145508 131.79037109 256.74145508 132.45037109 256.74145508 133.13037109 C254.75708008 134.61083984 254.75708008 134.61083984 251.99145508 136.31787109 C250.49291992 137.2440625 250.49291992 137.2440625 248.96411133 138.18896484 C229.14185749 150.13037109 229.14185749 150.13037109 224.74145508 150.13037109 C224.74145508 150.79037109 224.74145508 151.45037109 224.74145508 152.13037109 C219.56899217 154.15385774 214.39310563 156.16817249 209.21313477 158.17236328 C207.64518474 158.78009105 206.07802773 159.38987202 204.51196289 160.00244141 C197.08409407 162.90540544 189.74354523 165.5749322 181.95239258 167.36083984 C179.55448302 167.93552133 177.20830941 168.55601434 174.84301758 169.24365234 C164.96820721 172.11348731 155.06381643 174.42190537 144.97680664 176.43066406 C141.03150799 177.21906734 137.18038992 177.99562363 133.33129883 179.17724609 C127.95795878 180.60390004 122.51004821 181.0927479 116.99145508 181.69287109 C114.74634766 181.94133644 112.50153802 182.19251194 110.25708008 182.44677734 C109.26998047 182.55449463 108.28288086 182.66221191 107.26586914 182.77319336 C104.62272682 183.06983366 104.62272682 183.06983366 101.74145508 184.13037109 C97.46450101 184.73121455 93.16260652 185.12787659 88.86645508 185.56787109 C87.73981445 185.6896875 86.61317383 185.81150391 85.45239258 185.93701172 C81.21836878 186.37540581 76.9821485 186.76286814 72.74145508 187.13037109 C71.78121429 187.21515717 70.82097351 187.29994324 69.83163452 187.38729858 C48.7187915 189.19681955 27.67352182 189.56611738 6.49470139 189.56763458 C4.6879306 189.56779339 2.88115958 189.56910658 1.07439041 189.57152557 C-32.81156217 189.61595483 -67.68958605 189.64398295 -100.98052979 182.5816803 C-103.98189433 181.98706465 -106.99339254 181.6163262 -110.02880859 181.24414062 C-130.64267151 178.674955 -151.23716652 173.67678666 -171.13208008 167.75732422 C-173.44374192 167.07576881 -175.76260501 166.42300981 -178.08276367 165.77099609 C-209.28184735 156.87733175 -248.80868121 142.39958223 -265.75463867 112.48974609 C-270.31308685 103.65694566 -272.65303793 93.80761477 -269.59790039 84.01220703 C-264.98846544 72.48728514 -257.89323627 62.72387973 -247.25854492 56.13037109 C-246.59854492 56.13037109 -245.93854492 56.13037109 -245.25854492 56.13037109 C-244.92854492 55.14037109 -244.59854492 54.15037109 -244.25854492 53.13037109 C-242.05332579 51.59059698 -239.89326139 50.22058569 -237.57104492 48.88037109 C-236.90129639 48.487771 -236.23154785 48.0951709 -235.54150391 47.69067383 C-216.83503102 36.85413859 -216.83503102 36.85413859 -207.25854492 35.13037109 C-207.25854492 34.47037109 -207.25854492 33.81037109 -207.25854492 33.13037109 C-206.28014648 32.80423828 -205.30174805 32.47810547 -204.29370117 32.14208984 C-203.66343018 31.93197266 -203.03315918 31.72185547 -202.38378906 31.50537109 C-200.99632145 31.04293663 -199.60878773 30.58070046 -198.22119141 30.11865234 C-195.41961911 29.18555938 -192.61833117 28.25202959 -189.82104492 27.30615234 C-184.96545831 25.66549515 -180.08389105 24.10922007 -175.19604492 22.56787109 C-174.53483643 22.35775391 -173.87362793 22.14763672 -173.19238281 21.93115234 C-172.54261475 21.72748047 -171.89284668 21.52380859 -171.22338867 21.31396484 C-170.65225342 21.13406006 -170.08111816 20.95415527 -169.49267578 20.76879883 C-166.81418451 20.00339017 -164.11087998 19.35148768 -161.40687561 18.68318176 C-159.34636201 18.15296828 -157.30891414 17.57391338 -155.26928711 16.96875 C-143.7960649 13.57946806 -132.31896461 11.3549204 -120.50854492 9.50537109 C-119.112883 9.281754 -119.112883 9.281754 -117.68902588 9.05361938 C-102.22662148 6.57991869 -86.80196917 4.73950896 -71.20092773 3.40234375 C-67.99630417 3.10613145 -64.81414073 2.71767222 -61.6254425 2.286026 C-54.27135056 1.31103221 -46.96131978 0.86182744 -39.55151367 0.58349609 C-38.42104111 0.54088654 -37.29056854 0.49827698 -36.12583923 0.45437622 C-24.08429638 0.03726596 -12.04773309 -0.02081198 0 0 Z " fill="#97894C" transform="translate(767.258544921875,754.86962890625)"/>
<path d="M0 0 C4.29506249 3.36640033 5.43989072 6.87392666 7 12 C7.495 16.455 7.495 16.455 8 21 C-1.9 21 -11.8 21 -22 21 C-22.66 18.36 -23.32 15.72 -24 13 C-30.5841934 11.53684591 -38.5424435 10.84748117 -45 13 C-45.93786082 18.05009595 -45.93786082 18.05009595 -45 23 C-42.4515791 23.80460348 -40.04536335 24.40837242 -37.4375 24.9375 C-35.88650585 25.27767658 -34.33572946 25.61884731 -32.78515625 25.9609375 C-31.99125488 26.13206055 -31.19735352 26.30318359 -30.37939453 26.47949219 C-26.69735239 27.28496252 -23.03520672 28.16367766 -19.375 29.0625 C-18.12460937 29.36285156 -16.87421875 29.66320312 -15.5859375 29.97265625 C-11.84309853 31.04495107 -8.54701722 32.40531491 -5 34 C-4.26652344 34.28101563 -3.53304687 34.56203125 -2.77734375 34.8515625 C3.07710715 37.31266925 6.32554885 41.28093144 9 47 C10.08288726 51.61516237 10.12190901 56.15883865 10.0625 60.875 C10.05798828 61.56335938 10.05347656 62.25171875 10.04882812 62.9609375 C10.03716336 64.64066335 10.01923271 66.32034375 10 68 C9.34 68 8.68 68 8 68 C7.896875 68.721875 7.79375 69.44375 7.6875 70.1875 C6.47052849 75.16601983 3.83750385 78.65765794 0 82 C-0.66 82 -1.32 82 -2 82 C-2 82.66 -2 83.32 -2 84 C-3.32 84.33 -4.64 84.66 -6 85 C-6 85.66 -6 86.32 -6 87 C-13.7741279 92.18275193 -25.20435962 91.38796959 -34.25 91.375 C-35.42860596 91.37338867 -36.60721191 91.37177734 -37.8215332 91.37011719 C-50.11964986 91.19793849 -61.23148901 89.28163141 -72 83 C-72 82.34 -72 81.68 -72 81 C-72.61488281 80.75121094 -73.22976563 80.50242187 -73.86328125 80.24609375 C-76.38462521 78.77569389 -76.99045123 77.68623547 -78.1875 75.0625 C-78.51105469 74.37285156 -78.83460938 73.68320312 -79.16796875 72.97265625 C-81.71825682 66.92619863 -81 65.0752395 -81 57 C-71.43 57 -61.86 57 -52 57 C-51.01 59.64 -50.02 62.28 -49 65 C-46.38809945 67.61190055 -44.43269626 67.92601024 -40.80175781 68.11352539 C-40.02670898 68.10828857 -39.25166016 68.10305176 -38.453125 68.09765625 C-37.60878906 68.09443359 -36.76445313 68.09121094 -35.89453125 68.08789062 C-35.02183594 68.07951172 -34.14914062 68.07113281 -33.25 68.0625 C-32.36183594 68.05798828 -31.47367188 68.05347656 -30.55859375 68.04882812 C-28.37236684 68.03707422 -26.18617472 68.01913966 -24 68 C-23.34 65.03 -22.68 62.06 -22 59 C-29.41232014 55.7879946 -36.99966996 53.93942292 -44.9375 52.5625 C-51.59918194 51.40367354 -57.74123265 49.61223976 -64 47 C-64 46.34 -64 45.68 -64 45 C-64.57492187 44.89171875 -65.14984375 44.7834375 -65.7421875 44.671875 C-70.64150107 43.21394778 -75.02540149 39.74615567 -77.5 35.3125 C-78 33 -78 33 -78 30 C-78.66 30 -79.32 30 -80 30 C-80.71335381 17.9918775 -80.70839863 9.11755929 -72.6796875 -0.59765625 C-68.49580827 -4.09070891 -62.97447716 -5.89519232 -58 -8 C-57.20464844 -8.34804688 -56.40929687 -8.69609375 -55.58984375 -9.0546875 C-37.85230919 -15.62414474 -14.86532162 -10.79805445 0 0 Z " fill="#2F2F2E" transform="translate(608,804)"/>
<path d="M0 0 C10.065 -0.04125 20.13 -0.0825 30.5 -0.125 C35.24600586 -0.15231201 35.24600586 -0.15231201 40.08789062 -0.18017578 C42.61067536 -0.18601995 45.13346199 -0.19111569 47.65625 -0.1953125 C49.60289551 -0.2106604 49.60289551 -0.2106604 51.58886719 -0.22631836 C58.0866943 -0.22756698 63.79235266 0.02421797 70 2 C70 2.66 70 3.32 70 4 C70.680625 4.185625 71.36125 4.37125 72.0625 4.5625 C78.90737698 7.91212065 83.41771719 13.91954714 86 21 C88.40272122 30.69097558 87.80250637 41.76354889 84 51 C78.20910128 60.24576612 78.20910128 60.24576612 73.74609375 61.76953125 C73.16988281 61.84558594 72.59367188 61.92164063 72 62 C72 62.66 72 63.32 72 64 C58.77201958 68.04054675 45.7193981 67.21215564 32 67 C32 77.56 32 88.12 32 99 C21.44 99 10.88 99 0 99 C0 66.33 0 33.66 0 0 Z " fill="#393938" transform="translate(626,795)"/>
<path d="M0 0 C5.30854327 4.8491501 9.77770463 12.20102316 11.1875 19.25 C11.1875 23.21 11.1875 27.17 11.1875 31.25 C0.9575 31.25 -9.2725 31.25 -19.8125 31.25 C-20.3075 25.31 -20.3075 25.31 -20.8125 19.25 C-22.1325 18.59 -23.4525 17.93 -24.8125 17.25 C-25.8334375 16.4765625 -25.8334375 16.4765625 -26.875 15.6875 C-31.11718073 12.54007559 -35.76535379 12.81715413 -40.8125 13.25 C-44.56480203 13.96754548 -47.65754117 14.86805505 -50.1640625 17.8671875 C-53.14381478 22.86202406 -53.93868694 27.11191734 -53.9453125 32.8203125 C-53.94660156 33.88121094 -53.94789063 34.94210937 -53.94921875 36.03515625 C-53.94341797 37.68837891 -53.94341797 37.68837891 -53.9375 39.375 C-53.94136719 40.48488281 -53.94523438 41.59476563 -53.94921875 42.73828125 C-53.94728516 44.32576172 -53.94728516 44.32576172 -53.9453125 45.9453125 C-53.94362061 47.3996167 -53.94362061 47.3996167 -53.94189453 48.88330078 C-53.96882176 51.26878866 -53.96882176 51.26878866 -52.8125 53.25 C-52.772508 55.24960012 -52.76903201 57.25047242 -52.8125 59.25 C-52.1525 59.25 -51.4925 59.25 -50.8125 59.25 C-49.884375 60.7040625 -49.884375 60.7040625 -48.9375 62.1875 C-47.21619311 65.26986417 -47.21619311 65.26986417 -45.1171875 65.92578125 C-42.00285491 66.36389922 -38.95745282 66.46002179 -35.8125 66.5 C-33.9871875 66.53867187 -33.9871875 66.53867187 -32.125 66.578125 C-28.583353 66.22730148 -27.41825974 65.54210348 -24.8125 63.25 C-24.1525 63.25 -23.4925 63.25 -22.8125 63.25 C-22.8125 62.59 -22.8125 61.93 -22.8125 61.25 C-22.1525 61.25 -21.4925 61.25 -20.8125 61.25 C-19.8225 57.29 -18.8325 53.33 -17.8125 49.25 C-8.2425 49.25 1.3275 49.25 11.1875 49.25 C11.1875 60.5 11.1875 60.5 10.1875 64.875 C9.9090625 66.13183594 9.9090625 66.13183594 9.625 67.4140625 C9.4084375 68.32285156 9.4084375 68.32285156 9.1875 69.25 C8.1975 69.25 7.2075 69.25 6.1875 69.25 C4.98121992 71.58214148 4.0220262 73.74642139 3.1875 76.25 C2.5275 76.25 1.8675 76.25 1.1875 76.25 C0.1975 78.23 0.1975 78.23 -0.8125 80.25 C-1.4725 80.25 -2.1325 80.25 -2.8125 80.25 C-3.3075 81.735 -3.3075 81.735 -3.8125 83.25 C-6.14896832 84.39439265 -8.38576394 85.34464078 -10.8125 86.25 C-11.81796875 86.65605469 -11.81796875 86.65605469 -12.84375 87.0703125 C-26.91652638 92.64529699 -47.27889006 92.88890187 -61.40625 87.36328125 C-62.59734375 86.81220703 -62.59734375 86.81220703 -63.8125 86.25 C-64.4621875 85.99605469 -65.111875 85.74210938 -65.78125 85.48046875 C-73.48697421 81.92532781 -80.85338878 73.1410532 -84.06054688 65.37646484 C-86.9387917 57.23701275 -87.14999572 48.92353714 -87.125 40.375 C-87.14111328 39.28058594 -87.15722656 38.18617188 -87.17382812 37.05859375 C-87.17953811 27.4087135 -85.79287834 18.07880344 -81.125 9.5 C-80.68800781 8.68015625 -80.25101563 7.8603125 -79.80078125 7.015625 C-79.31158203 6.14164063 -79.31158203 6.14164063 -78.8125 5.25 C-78.1525 5.25 -77.4925 5.25 -76.8125 5.25 C-76.503125 4.4146875 -76.503125 4.4146875 -76.1875 3.5625 C-71.49888826 -4.32289246 -61.47921555 -8.03699573 -53.0859375 -10.57421875 C-34.54807751 -14.52261491 -15.15860731 -11.68338074 0 0 Z " fill="#4A4A49" transform="translate(852.8125,804.75)"/>
<path d="M0 0 C4.92957259 -0.07414321 9.85882081 -0.12859817 14.78881836 -0.16479492 C16.4659592 -0.17988384 18.14306057 -0.20035748 19.82006836 -0.22631836 C22.23040504 -0.26269811 24.64022019 -0.27972486 27.05078125 -0.29296875 C27.80087967 -0.30845261 28.55097809 -0.32393646 29.32380676 -0.33988953 C34.51762655 -0.34156959 34.51762655 -0.34156959 36.93457031 1.36987305 C38.3086237 3.47219992 39.10354275 5.65595615 40 8 C41.49619189 10.53995441 43.07285358 13.0162012 44.66015625 15.5 C46.02304907 18.04300701 46.58915813 20.15961179 47 23 C47.66 23 48.32 23 49 23 C49.495 25.475 49.495 25.475 50 28 C50.66 28 51.32 28 52 28 C53.625 29.5 53.625 29.5 55 31 C55.66 29.68 56.32 28.36 57 27 C57.66 27 58.32 27 59 27 C59.10570312 26.26523437 59.21140625 25.53046875 59.3203125 24.7734375 C60.05185908 21.78839111 61.08097965 20.09735641 62.875 17.625 C65.50865655 13.84463174 67.29377551 10.26556122 69 6 C69.66 5.01 70.32 4.02 71 3 C71.66 3 72.32 3 73 3 C73 2.01 73 1.02 73 0 C84.22 0 95.44 0 107 0 C105.92275295 4.3089882 104.72007749 5.59990314 102 9 C100.75997284 11.12392196 99.60130585 13.28476797 98.43359375 15.44921875 C96.2657178 19.30650211 93.85596616 23.00088708 91.453125 26.71484375 C90.00186849 28.91078885 90.00186849 28.91078885 89 31 C88.34 31 87.68 31 87 31 C86.71125 31.94875 86.4225 32.8975 86.125 33.875 C85 37 85 37 83 39 C82.5359375 40.2065625 82.5359375 40.2065625 82.0625 41.4375 C80.97978484 44.0487542 79.95218595 45.04781405 78 47 C77.29788106 48.65204456 76.63028587 50.31923769 76 52 C75.34 52.99 74.68 53.98 74 55 C73.34 55 72.68 55 72 55 C71.67 56.32 71.34 57.64 71 59 C70.34 59 69.68 59 69 59 C69 72.2 69 85.4 69 99 C58.77 99 48.54 99 38 99 C37.95101562 96.24269531 37.90203125 93.48539063 37.8515625 90.64453125 C37.79751541 87.96698696 37.74022257 85.28953037 37.68261719 82.61206055 C37.64439134 80.75470544 37.60952737 78.89727792 37.578125 77.03979492 C37.53233539 74.36611088 37.47436421 71.69292258 37.4140625 69.01953125 C37.40251129 68.19226028 37.39096008 67.36498932 37.37905884 66.51264954 C37.27041409 62.24535589 36.95873577 58.89341689 35 55 C34.34 55 33.68 55 33 55 C32.22076172 53.60587891 32.22076172 53.60587891 31.42578125 52.18359375 C27.14107499 44.43290197 27.14107499 44.43290197 22.25 37.0625 C20.59895013 34.81523768 19.22371966 32.72599834 17.875 30.3125 C16.1447274 27.08523958 16.1447274 27.08523958 14.25 24.6875 C13 23 13 23 13 21 C12.34 21 11.68 21 11 21 C7.91701746 17.01781422 5.85932747 12.64831868 4 8 C3.484375 7.505 2.96875 7.01 2.4375 6.5 C0.51576702 4.49471341 0.4585192 2.68997929 0 0 Z " fill="#565655" transform="translate(865,795)"/>
<path d="M0 0 C-0.86625 0.61875 -0.86625 0.61875 -1.75 1.25 C-4.02516599 3.01957355 -5.99995399 4.92852378 -8 7 C-7.01 7.495 -7.01 7.495 -6 8 C-6 8.66 -6 9.32 -6 10 C-7.30710937 10.03867187 -7.30710937 10.03867187 -8.640625 10.078125 C-18.84883512 10.56423024 -27.45859272 12.59025875 -36.5625 17.25 C-40 19 -40 19 -43 19 C-43.495 20.485 -43.495 20.485 -44 22 C-44.98811064 23.01174965 -45.9890652 24.0110557 -47 25 C-50.75810452 30.62590497 -51.63074643 35.84348277 -51.75 42.5 C-51.79447266 43.73363281 -51.79447266 43.73363281 -51.83984375 44.9921875 C-51.90968437 46.99428533 -51.95720388 48.99714156 -52 51 C-51.34 51 -50.68 51 -50 51 C-49.7525 52.27875 -49.505 53.5575 -49.25 54.875 C-48.54322391 58.10884762 -48.54322391 58.10884762 -46.1875 60.25 C-45.465625 60.4975 -44.74375 60.745 -44 61 C-42.7315625 62.0209375 -42.7315625 62.0209375 -41.4375 63.0625 C-39.07973981 65.16384349 -39.07973981 65.16384349 -36 66 C-36 66.66 -36 67.32 -36 68 C-35.030625 68.103125 -34.06125 68.20625 -33.0625 68.3125 C-30.23342687 68.71104006 -27.74133714 69.39104251 -25.0625 70.375 C-20.80259937 71.89222488 -16.50895622 72.64193141 -12.0625 73.375 C-5.38138692 74.50034682 0.16207754 76.44953273 6 80 C6.3069161 83.37607708 6.45693595 85.33078672 4.51171875 88.1796875 C0.98228605 90.73756563 -2.25235391 90.51081174 -6.4375 90.375 C-7.18837891 90.37371094 -7.93925781 90.37242187 -8.71289062 90.37109375 C-13.6717394 90.29258955 -17.55659037 89.65802797 -21.75 86.8125 C-23 85 -23 85 -24 78 C-33.57 78 -43.14 78 -53 78 C-52.47477356 86.75803429 -52.47477356 86.75803429 -50.1875 94.5 C-49.87167969 95.2940625 -49.55585937 96.088125 -49.23046875 96.90625 C-47.8218527 99.30313319 -46.23134938 100.39080883 -44 102 C-44 102.66 -44 103.32 -44 104 C-43.030625 104.268125 -42.06125 104.53625 -41.0625 104.8125 C-37.49810117 105.8257666 -34.00190871 106.99743605 -30.50390625 108.21875 C-22.35975763 110.75982601 -15.28512557 111.30658647 -6.75 111.25 C-5.59886719 111.25773438 -4.44773437 111.26546875 -3.26171875 111.2734375 C5.30215618 111.25412775 13.82340244 110.72553252 22 108 C22 107.34 22 106.68 22 106 C23.32 105.67 24.64 105.34 26 105 C26 104.34 26 103.68 26 103 C27.06801128 102.08121769 28.18067163 101.21391213 29.3125 100.375 C33.38433507 97.04499723 34.53699996 93.9914119 36 89 C36.66 89 37.32 89 38 89 C37.78271783 72.66634031 37.78271783 72.66634031 30 59 C29.34 58.34 28.68 57.68 28 57 C30.64 57 33.28 57 36 57 C36.495 60.96 36.495 60.96 37 65 C38.65 65 40.3 65 42 65 C41.979375 66.134375 41.95875 67.26875 41.9375 68.4375 C41.58422523 71.81575674 41.58422523 71.81575674 43 73 C43 70.36 43 67.72 43 65 C43.33 65 43.66 65 44 65 C43.99777939 64.38691986 43.99555878 63.77383972 43.99327087 63.1421814 C43.97111549 56.75055525 43.95605058 50.35894006 43.94506836 43.96728516 C43.94004541 41.58316606 43.93322587 39.19905004 43.92456055 36.81494141 C43.91240576 33.38443238 43.90675123 29.95396416 43.90234375 26.5234375 C43.89718246 25.46071625 43.89202118 24.397995 43.88670349 23.30307007 C43.88662796 22.30248566 43.88655243 21.30190125 43.88647461 20.27099609 C43.884254 19.39607513 43.88203339 18.52115417 43.87974548 17.61972046 C44.01439298 14.68645174 44.46745798 11.88531836 45 9 C52.38005791 8.97683439 59.76010799 8.95906336 67.14019489 8.94818783 C70.56702775 8.94296825 73.99383575 8.93588735 77.4206543 8.92456055 C81.35986026 8.91162154 85.29905613 8.90676414 89.23828125 8.90234375 C90.46960281 8.89718246 91.70092438 8.89202118 92.96955872 8.88670349 C94.11051498 8.88662796 95.25147125 8.88655243 96.42700195 8.88647461 C97.432939 8.884254 98.43887604 8.88203339 99.47529602 8.87974548 C102 9 102 9 105 10 C105.99 10 106.98 10 108 10 C108 10.66 108 11.32 108 12 C87.54 12 67.08 12 46 12 C46 44.67 46 77.34 46 111 C56.56 111 67.12 111 78 111 C78 100.44 78 89.88 78 79 C90.375 78.625 90.375 78.625 94.21240234 78.52197266 C100.27365611 78.31257183 105.9930463 77.81689685 111.90087891 76.41552734 C114 76 114 76 118 76 C118 75.34 118 74.68 118 74 C118.7425 73.5875 119.485 73.175 120.25 72.75 C123.54354223 70.65410949 124.90774484 68.24660284 127 65 C127.66 65 128.32 65 129 65 C129.66 62.36 130.32 59.72 131 57 C131.82810826 60.31243305 132.09278428 62.65976579 132 66 C131.01 66.495 131.01 66.495 130 67 C127.5370575 69.31806353 125.39977308 71.35110115 123.61743164 74.24414062 C121.33575349 77.59028581 119.20740515 80.45163649 115.10717773 81.47021484 C109.6018336 82.10698673 104.08286904 81.77298233 98.5625 81.5 C96.05884012 81.42028243 93.55507883 81.35315491 91.05101013 81.28771973 C89.49925484 81.2423629 87.94777628 81.18595363 86.39686584 81.11755371 C84.59906243 81.04219848 82.7993107 81.01601641 81 81 C79.66003068 82.11347596 79.66003068 82.11347596 79.88647461 84.95922852 C79.89171143 86.25272217 79.89694824 87.54621582 79.90234375 88.87890625 C79.90609009 90.76331421 79.90609009 90.76331421 79.90991211 92.68579102 C79.91901611 94.29510498 79.92812012 95.90441895 79.9375 97.5625 C79.9684375 105.2040625 79.9684375 105.2040625 80 113 C68.12 113 56.24 113 44 113 C44.0625 103.25 44.0625 103.25 44.09008789 100.19628906 C44.09258545 99.39416992 44.09508301 98.59205078 44.09765625 97.765625 C44.10551147 96.54020996 44.10551147 96.54020996 44.11352539 95.29003906 C44.00299021 93.06031865 43.62055567 91.13866245 43 89 C41.515 89.495 41.515 89.495 40 90 C38.93348246 92.16082375 38.93348246 92.16082375 38.125 94.75 C36.46383208 99.18189457 34.82288629 102.03726313 31 105 C29.66893378 105.34227417 28.33599921 105.67751743 27 106 C25.55852701 108.27600998 24.85554578 110.43336266 24 113 C23.4097554 112.99777939 22.8195108 112.99555878 22.21138 112.99327087 C16.06320807 112.97113215 9.91504747 112.9560575 3.7668457 112.94506836 C1.47289571 112.94004239 -0.82105108 112.93322062 -3.11499023 112.92456055 C-6.41390778 112.91241904 -9.71278293 112.90675428 -13.01171875 112.90234375 C-14.03585373 112.89718246 -15.05998871 112.89202118 -16.11515808 112.88670349 C-17.07577652 112.88662796 -18.03639496 112.88655243 -19.02612305 112.88647461 C-19.86773483 112.884254 -20.70934662 112.88203339 -21.57646179 112.87974548 C-24.05601995 112.92755534 -24.05601995 112.92755534 -26.62336731 113.63209534 C-29 114 -29 114 -32 112 C-32.268125 112.639375 -32.53625 113.27875 -32.8125 113.9375 C-34 116 -34 116 -37 117 C-39.74072645 116.08642452 -42.33916983 115.10206026 -45 114 C-46.0725 113.62875 -47.145 113.2575 -48.25 112.875 C-63.31743635 106.28946146 -75.74319391 91.98424843 -82 77 C-84.97121125 67.57759721 -83.87723161 58.27797706 -79.5 49.625 C-74.69842553 40.63630624 -68.71788669 33.40508975 -60 28 C-59.34 28 -58.68 28 -58 28 C-57.67 27.01 -57.34 26.02 -57 25 C-54.79478087 23.46022588 -52.63471647 22.09021459 -50.3125 20.75 C-49.64275146 20.3573999 -48.97300293 19.9647998 -48.28295898 19.56030273 C-29.5764861 8.7237675 -29.5764861 8.7237675 -20 7 C-20 6.34 -20 5.68 -20 5 C-17.60712296 4.1572257 -15.21128981 3.32562998 -12.8125 2.5 C-11.80219727 2.14228516 -11.80219727 2.14228516 -10.77148438 1.77734375 C-7.06795533 0.51272408 -3.92059464 -0.30451221 0 0 Z " fill="#76682D" transform="translate(580,783)"/>
<path d="M0 0 C10.56 0 21.12 0 32 0 C32 32.67 32 65.34 32 99 C21.44 99 10.88 99 0 99 C0 66.33 0 33.66 0 0 Z " fill="#434241" transform="translate(723,795)"/>
<path d="M0 0 C9.9 0 19.8 0 30 0 C30 9.57 30 19.14 30 29 C20.1 29 10.2 29 0 29 C0 19.43 0 9.86 0 0 Z " fill="#5F5E5D" transform="translate(975,865)"/>
<path d="M0 0 C7.38005791 -0.02316561 14.76010799 -0.04093664 22.14019489 -0.05181217 C25.56702775 -0.05703175 28.99383575 -0.06411265 32.4206543 -0.07543945 C36.35986026 -0.08837846 40.29905613 -0.09323586 44.23828125 -0.09765625 C45.46960281 -0.10281754 46.70092438 -0.10797882 47.96955872 -0.11329651 C49.11051498 -0.11337204 50.25147125 -0.11344757 51.42700195 -0.11352539 C52.432939 -0.115746 53.43887604 -0.11796661 54.47529602 -0.12025452 C57 0 57 0 60 1 C60.99 1 61.98 1 63 1 C63 1.66 63 2.32 63 3 C42.54 3 22.08 3 1 3 C1 35.67 1 68.34 1 102 C11.56 102 22.12 102 33 102 C33 91.44 33 80.88 33 70 C45.375 69.625 45.375 69.625 49.21240234 69.52197266 C55.27365611 69.31257183 60.9930463 68.81689685 66.90087891 67.41552734 C69 67 69 67 73 67 C73 66.34 73 65.68 73 65 C73.7425 64.5875 74.485 64.175 75.25 63.75 C78.54354223 61.65410949 79.90774484 59.24660284 82 56 C82.66 56 83.32 56 84 56 C84.66 53.36 85.32 50.72 86 48 C86.82810826 51.31243305 87.09278428 53.65976579 87 57 C86.01 57.495 86.01 57.495 85 58 C82.5370575 60.31806353 80.39977308 62.35110115 78.61743164 65.24414062 C76.33575349 68.59028581 74.20740515 71.45163649 70.10717773 72.47021484 C64.6018336 73.10698673 59.08286904 72.77298233 53.5625 72.5 C51.05884012 72.42028243 48.55507883 72.35315491 46.05101013 72.28771973 C44.49925484 72.2423629 42.94777628 72.18595363 41.39686584 72.11755371 C39.59906243 72.04219848 37.7993107 72.01601641 36 72 C34.66003068 73.11347596 34.66003068 73.11347596 34.88647461 75.95922852 C34.89171143 77.25272217 34.89694824 78.54621582 34.90234375 79.87890625 C34.90484131 81.13517822 34.90733887 82.3914502 34.90991211 83.68579102 C34.91901611 85.29510498 34.92812012 86.90441895 34.9375 88.5625 C34.958125 93.656875 34.97875 98.75125 35 104 C23.12 104 11.24 104 -1 104 C-0.9375 94.25 -0.9375 94.25 -0.90991211 91.19628906 C-0.90741455 90.39416992 -0.90491699 89.59205078 -0.90234375 88.765625 C-0.89448853 87.54020996 -0.89448853 87.54020996 -0.88647461 86.29003906 C-0.99700979 84.06031865 -1.37944433 82.13866245 -2 80 C-3.98 80.495 -3.98 80.495 -6 81 C-6.33 72.75 -6.66 64.5 -7 56 C-5.68 56 -4.36 56 -3 56 C-3.020625 57.134375 -3.04125 58.26875 -3.0625 59.4375 C-3.41577477 62.81575674 -3.41577477 62.81575674 -2 64 C-2 61.36 -2 58.72 -2 56 C-1.67 56 -1.34 56 -1 56 C-1.00222061 55.38691986 -1.00444122 54.77383972 -1.00672913 54.1421814 C-1.02888451 47.75055525 -1.04394942 41.35894006 -1.05493164 34.96728516 C-1.05995459 32.58316606 -1.06677413 30.19905004 -1.07543945 27.81494141 C-1.08759424 24.38443238 -1.09324877 20.95396416 -1.09765625 17.5234375 C-1.10281754 16.46071625 -1.10797882 15.397995 -1.11329651 14.30307007 C-1.11337204 13.30248566 -1.11344757 12.30190125 -1.11352539 11.27099609 C-1.115746 10.39607513 -1.11796661 9.52115417 -1.12025452 8.61972046 C-0.98560702 5.68645174 -0.53254202 2.88531836 0 0 Z " fill="#7C6F3A" transform="translate(625,792)"/>
<path d="M0 0 C11.88 0 23.76 0 36 0 C36 33.66 36 67.32 36 102 C35.67 102 35.34 102 35 102 C35 69.33 35 36.66 35 3 C24.44 3 13.88 3 3 3 C3 34.02 3 65.04 3 97 C2.34 97 1.68 97 1 97 C0.67 80.83 0.34 64.66 0 48 C-1.65 48 -3.3 48 -5 48 C-5.33 47.34 -5.66 46.68 -6 46 C-6.66 46.66 -7.32 47.32 -8 48 C-8 40.08 -8 32.16 -8 24 C-6.68 24.33 -5.36 24.66 -4 25 C-4.33 27.31 -4.66 29.62 -5 32 C-4.01 32 -3.02 32 -2 32 C-1.67 31.34 -1.34 30.68 -1 30 C-0.67 30.66 -0.34 31.32 0 32 C0.16780395 27.92514175 0.32834318 23.8500684 0.48217773 19.7746582 C0.53552222 18.38851232 0.59084559 17.00244111 0.64819336 15.61645508 C0.73031421 13.62341774 0.80471215 11.63006691 0.87890625 9.63671875 C0.9260376 8.43748779 0.97316895 7.23825684 1.02172852 6.00268555 C1.15444577 2.94774622 1.15444577 2.94774622 0 0 Z " fill="#877B42" transform="translate(720,792)"/>
<path d="M0 0 C2.375 1.1875 2.375 1.1875 4.375 4.1875 C4.375 5.8375 4.375 7.4875 4.375 9.1875 C14.275 9.1875 24.175 9.1875 34.375 9.1875 C34.045 10.5075 33.715 11.8275 33.375 13.1875 C31.9379191 13.24172947 30.50024538 13.28039723 29.0625 13.3125 C28.26199219 13.33570313 27.46148438 13.35890625 26.63671875 13.3828125 C24.375 13.1875 24.375 13.1875 21.375 11.1875 C21.375 11.8475 21.375 12.5075 21.375 13.1875 C18.075 13.5175 14.775 13.8475 11.375 14.1875 C13.685 14.8475 15.995 15.5075 18.375 16.1875 C18.375 17.5075 18.375 18.8275 18.375 20.1875 C11.94960643 19.16621763 5.65010246 17.70929333 -0.6875 16.25 C-1.85861328 15.98509766 -3.02972656 15.72019531 -4.23632812 15.44726562 C-5.36619141 15.18751953 -6.49605469 14.92777344 -7.66015625 14.66015625 C-8.6850415 14.42562744 -9.70992676 14.19109863 -10.76586914 13.94946289 C-18.08386262 11.99920607 -18.08386262 11.99920607 -20.625 8.1875 C-20.5 4.625 -20.5 4.625 -19.625 1.1875 C-14.27341642 -2.61559296 -6.04777143 -1.35553498 0 0 Z " fill="#766A32" transform="translate(581.625,815.8125)"/>
<path d="M0 0 C1.32 0 2.64 0 4 0 C4 9.9 4 19.8 4 30 C14.56 30 25.12 30 36 30 C36 20.1 36 10.2 36 0 C36.66 0 37.32 0 38 0 C38 9.57 38 19.14 38 29 C40.64 28.34 43.28 27.68 46 27 C46 26.34 46 25.68 46 25 C46.639375 24.896875 47.27875 24.79375 47.9375 24.6875 C48.618125 24.460625 49.29875 24.23375 50 24 C50.495 22.515 50.495 22.515 51 21 C51.66 20.34 52.32 19.68 53 19 C53.495 17.515 53.495 17.515 54 16 C56.64 16 59.28 16 62 16 C57.375 20.875 57.375 20.875 54 22 C54 22.66 54 23.32 54 24 C52.015625 25.48046875 52.015625 25.48046875 49.25 27.1875 C48.25097656 27.80496094 47.25195312 28.42242188 46.22265625 29.05859375 C26.40040241 41 26.40040241 41 22 41 C22 41.66 22 42.32 22 43 C20.73160474 43.50615298 19.46016898 44.00469099 18.1875 44.5 C17.47980469 44.7784375 16.77210938 45.056875 16.04296875 45.34375 C14 46 14 46 11 46 C11 44.68 11 43.36 11 42 C10.01 41.34 9.02 40.68 8 40 C12.66666667 40 17.33333333 40 22 40 C22.33 39.34 22.66 38.68 23 38 C25.0625 37.375 25.0625 37.375 27 37 C27.33 35.35 27.66 33.7 28 32 C18.1 32 8.2 32 -2 32 C-2 29.36 -2 26.72 -2 24 C-1.34 24 -0.68 24 0 24 C0 18.72 0 13.44 0 8 C-0.66 8 -1.32 8 -2 8 C-2.125 5.125 -2.125 5.125 -2 2 C-1.34 1.34 -0.68 0.68 0 0 Z " fill="#AD9F65" transform="translate(970,864)"/>
<path d="M0 0 C2.866875 -0.12375 5.73375 -0.2475 8.6875 -0.375 C10.02880981 -0.45693604 10.02880981 -0.45693604 11.3972168 -0.54052734 C17.09162131 -0.65930712 17.09162131 -0.65930712 19.68017578 1.21948242 C22.07540894 3.92830596 23.68004944 6.4089967 23.5 10.0625 C23.00731413 13.94240122 22.5087236 16.02669796 20 19 C19.01 19 18.02 19 17 19 C17 19.66 17 20.32 17 21 C11.39 21 5.78 21 0 21 C0 14.07 0 7.14 0 0 Z " fill="#83753C" transform="translate(658,818)"/>
<path d="M0 0 C-0.86625 0.61875 -0.86625 0.61875 -1.75 1.25 C-4.02516599 3.01957355 -5.99995399 4.92852378 -8 7 C-7.34 7.33 -6.68 7.66 -6 8 C-6 8.66 -6 9.32 -6 10 C-7.30710937 10.03867187 -7.30710937 10.03867187 -8.640625 10.078125 C-18.84883512 10.56423024 -27.45859272 12.59025875 -36.5625 17.25 C-40 19 -40 19 -43 19 C-43.33 19.66 -43.66 20.32 -44 21 C-44.99 20.34 -45.98 19.68 -47 19 C-27.04854369 7 -27.04854369 7 -20 7 C-20 6.34 -20 5.68 -20 5 C-17.60712296 4.1572257 -15.21128981 3.32562998 -12.8125 2.5 C-12.13896484 2.26152344 -11.46542969 2.02304687 -10.77148438 1.77734375 C-7.06795533 0.51272408 -3.92059464 -0.30451221 0 0 Z " fill="#7B6E30" transform="translate(580,783)"/>
<path d="M0 0 C4.34149055 -0.14857681 8.68162732 -0.25731436 13.02490234 -0.32958984 C14.50140156 -0.35972248 15.97772232 -0.40063879 17.45361328 -0.45263672 C19.57889779 -0.52562629 21.70181393 -0.55948491 23.828125 -0.5859375 C25.7447998 -0.63306885 25.7447998 -0.63306885 27.70019531 -0.68115234 C31 0 31 0 33.44824219 2.78662109 C35 6 35 6 35 10 C34.1646875 10.061875 34.1646875 10.061875 33.3125 10.125 C29.84108199 11.43850952 27.66699042 13.75224281 26 17 C26.0508054 20.78673743 26.0508054 20.78673743 27 24 C24.69 24.33 22.38 24.66 20 25 C19.95875 25.721875 19.9175 26.44375 19.875 27.1875 C18.61647835 31.23274817 16.36410883 32.49481257 13 35 C13.55018454 30.91705158 14.78707787 28.52675728 17.25 25.25 C20.13685307 21.28869446 22.5659168 17.29325389 24.8671875 12.97265625 C26 11 26 11 28.3125 8.125 C30.31094107 6.06070069 30.31094107 6.06070069 30 3 C28.74340576 2.970271 28.74340576 2.970271 27.46142578 2.93994141 C24.35634166 2.86189388 21.25165461 2.77520365 18.14697266 2.68261719 C16.14113029 2.62545964 14.13501082 2.57831404 12.12890625 2.53125 C10.87207031 2.49257813 9.61523438 2.45390625 8.3203125 2.4140625 C7.15773926 2.3826416 5.99516602 2.3512207 4.79736328 2.31884766 C2 2 2 2 0 0 Z " fill="#A99A5B" transform="translate(941,792)"/>
<path d="M0 0 C1.32 0 2.64 0 4 0 C4.33 9.9 4.66 19.8 5 30 C10.61 30.33 16.22 30.66 22 31 C22 31.33 22 31.66 22 32 C14.08 32 6.16 32 -2 32 C-2 29.36 -2 26.72 -2 24 C-1.34 24 -0.68 24 0 24 C0 18.72 0 13.44 0 8 C-0.66 8 -1.32 8 -2 8 C-2.125 5.125 -2.125 5.125 -2 2 C-1.34 1.34 -0.68 0.68 0 0 Z " fill="#AB9C5E" transform="translate(970,864)"/>
<path d="M0 0 C1.32 0 2.64 0 4 0 C3.979375 1.134375 3.95875 2.26875 3.9375 3.4375 C3.58422523 6.81575674 3.58422523 6.81575674 5 8 C5 5.36 5 2.72 5 0 C5.66 0.33 6.32 0.66 7 1 C7 9.58 7 18.16 7 27 C6.34 27.33 5.68 27.66 5 28 C5 26.68 5 25.36 5 24 C3.68 24.33 2.36 24.66 1 25 C0.67 16.75 0.34 8.5 0 0 Z " fill="#837436" transform="translate(618,848)"/>
<path d="M0 0 C0.90105469 0.01804687 1.80210937 0.03609375 2.73046875 0.0546875 C3.41753906 0.07789063 4.10460937 0.10109375 4.8125 0.125 C4.8125 1.115 4.8125 2.105 4.8125 3.125 C5.8953125 3.063125 5.8953125 3.063125 7 3 C11.84951727 3.2155341 14.4732511 4.7857511 17.8125 8.125 C18.8025 8.125 19.7925 8.125 20.8125 8.125 C21.1425 8.785 21.4725 9.445 21.8125 10.125 C22.1425 9.465 22.4725 8.805 22.8125 8.125 C23.4725 8.455 24.1325 8.785 24.8125 9.125 C25.4375 12.1875 25.4375 12.1875 25.8125 15.125 C26.8025 15.125 27.7925 15.125 28.8125 15.125 C28.791875 16.28 28.77125 17.435 28.75 18.625 C28.74242231 22.86850547 29.21275235 26.92676644 29.8125 31.125 C28.8225 31.62 28.8225 31.62 27.8125 32.125 C27.67972656 31.38894531 27.54695312 30.65289063 27.41015625 29.89453125 C27.23355469 28.91871094 27.05695312 27.94289063 26.875 26.9375 C26.70097656 25.97457031 26.52695312 25.01164063 26.34765625 24.01953125 C26.17105469 23.06433594 25.99445312 22.10914063 25.8125 21.125 C25.668125 20.2071875 25.52375 19.289375 25.375 18.34375 C25.03421926 15.93485754 25.03421926 15.93485754 22.75 14.8125 C22.110625 14.585625 21.47125 14.35875 20.8125 14.125 C20.8125 13.465 20.8125 12.805 20.8125 12.125 C19.93851563 11.68994141 19.93851563 11.68994141 19.046875 11.24609375 C17.67800232 10.55926428 16.31252079 9.86555701 14.953125 9.16015625 C7.26812761 5.2065109 0.49349694 2.70775211 -8.1875 2.125 C-4.87379 -0.08414 -3.8428979 -0.09981553 0 0 Z " fill="#726734" transform="translate(587.1875,791.875)"/>
<path d="M0 0 C5.65897447 1.53070621 10.85723355 3.26608311 16.0390625 6.015625 C19.25743081 7.63122025 22.61128681 8.78974529 26 10 C26 10.66 26 11.32 26 12 C27.423125 12.433125 27.423125 12.433125 28.875 12.875 C32 14 32 14 34 16 C30.66914012 16.06531098 27.58200765 16.12181556 24.3125 15.4375 C21.83606542 14.96898535 20.36684269 15.21105244 18 16 C18 13 18 13 19 11 C18.34 10.67 17.68 10.34 17 10 C17 9.34 17 8.68 17 8 C16.01 8.33 15.02 8.66 14 9 C13.38125 8.62875 12.7625 8.2575 12.125 7.875 C11.42375 7.58625 10.7225 7.2975 10 7 C7.25167846 8.28184562 7.25167846 8.28184562 5 10 C5 8.02 5 6.04 5 4 C3.35 3.67 1.7 3.34 0 3 C0 2.01 0 1.02 0 0 Z " fill="#B1A46E" transform="translate(970,784)"/>
<path d="M0 0 C0.66 0.33 1.32 0.66 2 1 C1.57847656 1.60328125 1.15695312 2.2065625 0.72265625 2.828125 C0.17480469 3.62734375 -0.37304688 4.4265625 -0.9375 5.25 C-1.48277344 6.03890625 -2.02804687 6.8278125 -2.58984375 7.640625 C-3.89622441 9.82636993 -4.54980511 11.5153801 -5 14 C-5.66 14 -6.32 14 -7 14 C-7.66 15.65 -8.32 17.3 -9 19 C-9.99 18.34 -10.98 17.68 -12 17 C-12 16.34 -12 15.68 -12 15 C-12.66 15 -13.32 15 -14 15 C-14.33 12.69 -14.66 10.38 -15 8 C-11.535 7.505 -11.535 7.505 -8 7 C-8 6.34 -8 5.68 -8 5 C-7.05125 4.731875 -6.1025 4.46375 -5.125 4.1875 C-1.74732727 3.25013412 -1.74732727 3.25013412 0 0 Z " fill="#A19456" transform="translate(929,808)"/>
<path d="M0 0 C0.99 0 1.98 0 3 0 C3 1.98 3 3.96 3 6 C13.89 6 24.78 6 36 6 C36.33 4.68 36.66 3.36 37 2 C37 3.98 37 5.96 37 8 C31.62484067 8.02467759 26.24971415 8.04284928 20.87451172 8.05493164 C19.04507879 8.05996737 17.21564991 8.06679627 15.38623047 8.07543945 C12.76008102 8.08753824 10.13398468 8.09323583 7.5078125 8.09765625 C6.68693146 8.10281754 5.86605042 8.10797882 5.02029419 8.11329651 C-0.77225659 8.11387171 -0.77225659 8.11387171 -3 7 C-3 6.01 -3 5.02 -3 4 C-2.34 4 -1.68 4 -1 4 C-0.67 2.68 -0.34 1.36 0 0 Z " fill="#A19458" transform="translate(899,888)"/>
<path d="M0 0 C1.485 0.99 1.485 0.99 3 2 C3 2.66 3 3.32 3 4 C3.99 4.33 4.98 4.66 6 5 C13.29355152 15.05478134 15.15599957 23.78172681 14 36 C13.67 36 13.34 36 13 36 C12.86722656 35.38511719 12.73445313 34.77023437 12.59765625 34.13671875 C12.42105469 33.32847656 12.24445313 32.52023437 12.0625 31.6875 C11.88847656 30.88699219 11.71445313 30.08648438 11.53515625 29.26171875 C11.00113841 26.854599 11.00113841 26.854599 10 24 C9.34 24 8.68 24 8 24 C8.185625 22.7625 8.37125 21.525 8.5625 20.25 C9.12738037 16.02954496 9.12738037 16.02954496 8 12 C7.01 11.67 6.02 11.34 5 11 C5 10.34 5 9.68 5 9 C3.9940581 6.31748828 3.37776452 5.22221442 0.875 3.75 C-0.053125 3.37875 -0.053125 3.37875 -1 3 C-0.67 2.01 -0.34 1.02 0 0 Z " fill="#B3A86F" transform="translate(1032,820)"/>
<path d="M0 0 C1.45742463 -0.08096803 2.91612807 -0.13917774 4.375 -0.1875 C5.18710937 -0.22230469 5.99921875 -0.25710938 6.8359375 -0.29296875 C7.55007813 -0.19628906 8.26421875 -0.09960938 9 0 C9.66 0.99 10.32 1.98 11 3 C11 2.34 11 1.68 11 1 C15.01804691 0.15901344 18.01803543 -0.05404945 22 1 C18.75709928 2.66024104 15.4656226 4.17144666 12.125 5.625 C11.11695313 6.07101562 10.10890625 6.51703125 9.0703125 6.9765625 C5.85370277 8.04876574 3.36551424 8.19087991 0 8 C0 5.36 0 2.72 0 0 Z " fill="#AA9D60" transform="translate(952,912)"/>
<path d="M0 0 C0.82810826 3.31243305 1.09278428 5.65976579 1 9 C0.01 9.495 0.01 9.495 -1 10 C-3.48354822 12.33745715 -5.70959753 14.62146228 -7.7890625 17.33203125 C-12.80660687 23.67892503 -12.80660687 23.67892503 -16.41015625 24.6484375 C-20.53779537 24.71555358 -22.49963899 24.33357401 -26 22 C-24.58603098 21.49242138 -23.16868271 20.99425075 -21.75 20.5 C-20.96109375 20.2215625 -20.1721875 19.943125 -19.359375 19.65625 C-17 19 -17 19 -13 19 C-13 18.34 -13 17.68 -13 17 C-12.2575 16.5875 -11.515 16.175 -10.75 15.75 C-7.45645777 13.65410949 -6.09225516 11.24660284 -4 8 C-3.34 8 -2.68 8 -2 8 C-1.34 5.36 -0.68 2.72 0 0 Z " fill="#827740" transform="translate(711,840)"/>
<path d="M0 0 C8.95413521 1.24636314 17.36009173 3.36712854 26 6 C24 8 24 8 21.0625 8.3125 C17.49467578 7.9484363 17.38811559 7.38811559 15 5 C11.38976901 4.26958147 11.38976901 4.26958147 8 4 C8 4.99 8 5.98 8 7 C5.36 7.33 2.72 7.66 0 8 C0.185625 7.236875 0.37125 6.47375 0.5625 5.6875 C1.22819173 2.91032625 1.22819173 2.91032625 0 0 Z " fill="#A89C62" transform="translate(912,768)"/>
<path d="M0 0 C0.66 0 1.32 0 2 0 C2.33 0.66 2.66 1.32 3 2 C3.66 1.34 4.32 0.68 5 0 C5 3.63 5 7.26 5 11 C13.25 11 21.5 11 30 11 C30 11.33 30 11.66 30 12 C19.77 12 9.54 12 -1 12 C-1.33 8.7 -1.66 5.4 -2 2 C-1.34 2 -0.68 2 0 2 C0 1.34 0 0.68 0 0 Z " fill="#5C594C" transform="translate(834,824)"/>
<path d="M0 0 C0.33 0.66 0.66 1.32 1 2 C0.27813289 3.73904349 -0.44928812 5.47641094 -1.2265625 7.19140625 C-2.79965086 10.86989065 -3.26933658 13.19199027 -2 17 C-4.31 17.33 -6.62 17.66 -9 18 C-9.04125 18.721875 -9.0825 19.44375 -9.125 20.1875 C-10.38352165 24.23274817 -12.63589117 25.49481257 -16 28 C-15.44981546 23.91705158 -14.21292213 21.52675728 -11.75 18.25 C-8.87421971 14.3016951 -6.40624476 10.33163613 -4.140625 6.0078125 C-2.91934456 3.85802433 -1.51961864 1.94755723 0 0 Z " fill="#9F925F" transform="translate(970,799)"/>
<path d="M0 0 C2.56364399 0.62057657 5.12584926 1.24629199 7.6875 1.875 C8.40873047 2.04902344 9.12996094 2.22304688 9.87304688 2.40234375 C13.72028845 3.35097866 17.35715569 4.40490841 21 6 C17.25 8 17.25 8 15 8 C14.34 7.01 13.68 6.02 13 5 C11.02463255 5.34786708 11.02463255 5.34786708 9 6 C8.67 6.66 8.34 7.32 8 8 C5.36 8 2.72 8 0 8 C0 5.36 0 2.72 0 0 Z " fill="#AB9D64" transform="translate(944,776)"/>
<path d="M0 0 C0 0.99 0 1.98 0 3 C-1.65 3 -3.3 3 -5 3 C-5.33 3.99 -5.66 4.98 -6 6 C-7.79158489 6.02696365 -9.58328473 6.04637917 -11.375 6.0625 C-12.37273438 6.07410156 -13.37046875 6.08570313 -14.3984375 6.09765625 C-17 6 -17 6 -19 5 C-19 4.34 -19 3.68 -19 3 C-5.38613861 -2.69306931 -5.38613861 -2.69306931 0 0 Z " fill="#84773C" transform="translate(630,770)"/>
<path d="M0 0 C1.77155654 0.11429397 3.54226229 0.24183037 5.3125 0.375 C6.79169922 0.47941406 6.79169922 0.47941406 8.30078125 0.5859375 C11 1 11 1 14 3 C13.67 3.99 13.34 4.98 13 6 C7.72 6 2.44 6 -3 6 C-2.67 5.01 -2.34 4.02 -2 3 C-1.34 3 -0.68 3 0 3 C0 2.01 0 1.02 0 0 Z " fill="#8B7E40" transform="translate(720,936)"/>
<path d="M0 0 C2.64 0 5.28 0 8 0 C3.375 4.875 3.375 4.875 0 6 C0 6.66 0 7.32 0 8 C-2.30078125 9.69140625 -2.30078125 9.69140625 -5.3125 11.5625 C-6.29863281 12.18253906 -7.28476562 12.80257812 -8.30078125 13.44140625 C-11 15 -11 15 -14 16 C-14.66 15.67 -15.32 15.34 -16 15 C-16 14.34 -16 13.68 -16 13 C-13.36 12.34 -10.72 11.68 -8 11 C-8 10.34 -8 9.68 -8 9 C-7.360625 8.896875 -6.72125 8.79375 -6.0625 8.6875 C-5.381875 8.460625 -4.70125 8.23375 -4 8 C-3.67 7.01 -3.34 6.02 -3 5 C-2.34 4.34 -1.68 3.68 -1 3 C-0.67 2.01 -0.34 1.02 0 0 Z " fill="#B3A76B" transform="translate(1024,880)"/>
<path d="M0 0 C0.66 0 1.32 0 2 0 C1.34 3.3 0.68 6.6 0 10 C-0.66 10 -1.32 10 -2 10 C-2.0825 10.70125 -2.165 11.4025 -2.25 12.125 C-3.18009005 15.6903452 -4.76686369 18.09015572 -7 21 C-7.66 21 -8.32 21 -9 21 C-9.33 21.99 -9.66 22.98 -10 24 C-10.91058531 20.92677456 -11.08886184 18.19902639 -11 15 C-9.68 15.33 -8.36 15.66 -7 16 C-6.67 15.01 -6.34 14.02 -6 13 C-5.34 13 -4.68 13 -4 13 C-3.87882812 12.31292969 -3.75765625 11.62585938 -3.6328125 10.91796875 C-3.38144531 9.56638672 -3.38144531 9.56638672 -3.125 8.1875 C-2.96257812 7.29417969 -2.80015625 6.40085937 -2.6328125 5.48046875 C-2 3 -2 3 0 0 Z " fill="#BAAD74" transform="translate(1043,856)"/>
<path d="M0 0 C0.33 0 0.66 0 1 0 C1.23268915 6.28260706 0.40454548 11.88019467 -1 18 C-1.99 18 -2.98 18 -4 18 C-4 17.34 -4 16.68 -4 16 C-4.99 16 -5.98 16 -7 16 C-7 13.36 -7 10.72 -7 8 C-5.35 8 -3.7 8 -2 8 C-2.061875 6.8553125 -2.061875 6.8553125 -2.125 5.6875 C-2 3 -2 3 0 0 Z " fill="#4F4F4E" transform="translate(863,856)"/>
<path d="M0 0 C11.55 0 23.1 0 35 0 C34.67 0.66 34.34 1.32 34 2 C29.64624473 2.19800001 25.29199369 2.38152823 20.9375 2.5625 C19.70837891 2.61857422 18.47925781 2.67464844 17.21289062 2.73242188 C11.3327081 2.9701651 5.78396925 3.16023157 0 2 C0 1.34 0 0.68 0 0 Z " fill="#A19152" transform="translate(864,792)"/>
<path d="M0 0 C6.96390643 2.45784933 11.29065701 5.72265033 15 12 C13.02 12.99 13.02 12.99 11 14 C10.34 12.35 9.68 10.7 9 9 C8.34 9.66 7.68 10.32 7 11 C6.67 9.35 6.34 7.7 6 6 C4.02 6 2.04 6 0 6 C-0.33 5.01 -0.66 4.02 -1 3 C-0.34 3 0.32 3 1 3 C0.67 2.01 0.34 1.02 0 0 Z " fill="#AEA269" transform="translate(1017,808)"/>
<path d="M0 0 C1.46373047 0.17982422 1.46373047 0.17982422 2.95703125 0.36328125 C3.69308594 0.47027344 4.42914062 0.57726562 5.1875 0.6875 C-3.38739463 5.31109872 -12.9412996 4.95012609 -22.4375 4.8125 C-24.22994141 4.79896484 -24.22994141 4.79896484 -26.05859375 4.78515625 C-28.97677834 4.76181077 -31.89452776 4.72906656 -34.8125 4.6875 C-34.8125 4.3575 -34.8125 4.0275 -34.8125 3.6875 C-34.11165283 3.67291748 -33.41080566 3.65833496 -32.6887207 3.64331055 C-29.50026991 3.56864513 -26.31284487 3.47204525 -23.125 3.375 C-22.02220703 3.35244141 -20.91941406 3.32988281 -19.78320312 3.30664062 C-18.1831543 3.2534668 -18.1831543 3.2534668 -16.55078125 3.19921875 C-15.57149658 3.17303467 -14.59221191 3.14685059 -13.58325195 3.11987305 C-8.11973406 2.26729659 -5.89499154 -0.78126394 0 0 Z " fill="#47423C" transform="translate(692.8125,857.3125)"/>
<path d="M0 0 C1.32 0 2.64 0 4 0 C4 0.66 4 1.32 4 2 C4.804375 1.690625 4.804375 1.690625 5.625 1.375 C8.83267308 0.8685253 11.01317066 1.84599775 14 3 C6.72358626 7.07479169 -0.83445462 7.49049142 -9 8 C-8.67 7.34 -8.34 6.68 -8 6 C-5.6739143 5.61936779 -3.33944736 5.28730055 -1 5 C-0.34 4.67 0.32 4.34 1 4 C0.67 2.68 0.34 1.36 0 0 Z " fill="#B1A46A" transform="translate(894,928)"/>
<path d="M0 0 C0.9075 0.185625 1.815 0.37125 2.75 0.5625 C5.79137413 0.97191575 7.15116877 0.75968833 10 0 C12.25 0.4375 12.25 0.4375 14 1 C13.67 1.66 13.34 2.32 13 3 C13 4.32 13 5.64 13 7 C8.02693484 6.50269348 4.36200187 5.44697666 0 3 C0 2.01 0 1.02 0 0 Z " fill="#8C7F46" transform="translate(552,904)"/>
<path d="M0 0 C-3.65285187 4.48304547 -8.73140091 6.85385947 -14 9 C-14.99 9 -15.98 9 -17 9 C-17.33 9.66 -17.66 10.32 -18 11 C-18.99 10.34 -19.98 9.68 -21 9 C-18.77312024 7.70425129 -16.54366825 6.41332692 -14.3125 5.125 C-13.68666016 4.76019531 -13.06082031 4.39539063 -12.41601562 4.01953125 C-2.91012774 -1.45506387 -2.91012774 -1.45506387 0 0 Z " fill="#756A3A" transform="translate(554,793)"/>
<path d="M0 0 C6.6 0.66 13.2 1.32 20 2 C20 2.33 20 2.66 20 3 C19.21625 3.144375 18.4325 3.28875 17.625 3.4375 C15.03578982 3.87798925 15.03578982 3.87798925 13 5 C12.67 5.66 12.34 6.32 12 7 C9.69 7 7.38 7 5 7 C4.9175 6.401875 4.835 5.80375 4.75 5.1875 C4.03806306 2.44296171 4.03806306 2.44296171 0 0 Z " fill="#A4955D" transform="translate(860,760)"/>
<path d="M0 0 C0.66 0.33 1.32 0.66 2 1 C2 2.98 2 4.96 2 7 C-1.08809695 8.76462683 -2.23312136 9 -6 9 C-6.33 9.66 -6.66 10.32 -7 11 C-7.99 10.01 -8.98 9.02 -10 8 C-6.25 5 -6.25 5 -4 5 C-3.67 4.01 -3.34 3.02 -3 2 C-2.01 1.34 -1.02 0.68 0 0 Z " fill="#7A6D31" transform="translate(526,806)"/>
<path d="M0 0 C0.66 0 1.32 0 2 0 C2 0.66 2 1.32 2 2 C2.7425 2.2475 3.485 2.495 4.25 2.75 C7.20124062 4.09147301 8.84814974 5.60905526 11 8 C9.5629191 8.05422947 8.12524538 8.09289723 6.6875 8.125 C5.88699219 8.14820313 5.08648438 8.17140625 4.26171875 8.1953125 C2 8 2 8 -1 6 C-1 6.66 -1 7.32 -1 8 C-1.66 8 -2.32 8 -3 8 C-1.125 2.25 -1.125 2.25 0 0 Z " fill="#B0A266" transform="translate(1006,800)"/>
<path d="M0 0 C-0.66 1.65 -1.32 3.3 -2 5 C-7.28 5 -12.56 5 -18 5 C-14.62118147 3.31059074 -11.43821503 2.02504369 -7.875 0.8125 C-6.82054687 0.44769531 -5.76609375 0.08289063 -4.6796875 -0.29296875 C-2 -1 -2 -1 0 0 Z " fill="#7F7034" transform="translate(606,891)"/>
<path d="M0 0 C10.23 0.33 20.46 0.66 31 1 C30.67 2.32 30.34 3.64 30 5 C30 4.01 30 3.02 30 2 C20.43 2 10.86 2 1 2 C1 4.31 1 6.62 1 9 C-1.33760758 5.28732913 -0.9611085 4.80554252 0 0 Z " fill="#564E2D" transform="translate(526,859)"/>
<path d="M0 0 C0 0.33 0 0.66 0 1 C-1.65 1 -3.3 1 -5 1 C-5.33 1.66 -5.66 2.32 -6 3 C-6.99 3.495 -6.99 3.495 -8 4 C-8 3.34 -8 2.68 -8 2 C-8.53625 2.33 -9.0725 2.66 -9.625 3 C-12.54655254 4.23012738 -14.85402571 4.06693562 -18 4 C-18.99 4.33 -19.98 4.66 -21 5 C-21.99 4.34 -22.98 3.68 -24 3 C-15.86222087 0.26022667 -8.55937129 -0.36741339 0 0 Z " fill="#8B7E46" transform="translate(682,761)"/>
<path d="M0 0 C1.2375 0.309375 2.475 0.61875 3.75 0.9375 C4.79414062 1.19853516 4.79414062 1.19853516 5.859375 1.46484375 C7.28628669 1.82157167 8.70843047 2.19794381 10.125 2.59375 C12.37645529 3.08156531 13.82997507 2.69750801 16 2 C16 3.98 16 5.96 16 8 C9.78310074 7.67279478 4.99100726 4.47200505 0 1 C0 0.67 0 0.34 0 0 Z " fill="#8A7C42" transform="translate(533,896)"/>
<path d="M0 0 C0.886875 0.474375 1.77375 0.94875 2.6875 1.4375 C2.6875 1.7675 2.6875 2.0975 2.6875 2.4375 C-0.64335988 2.50281098 -3.73049235 2.55931556 -7 1.875 C-9.47643458 1.40648535 -10.94565731 1.64855244 -13.3125 2.4375 C-13.3125 1.4475 -13.3125 0.4575 -13.3125 -0.5625 C-8.00057441 -3.14257814 -5.24501518 -2.47406376 0 0 Z " fill="#AB9D60" transform="translate(1001.3125,797.5625)"/>
<path d="M0 0 C0.99 0 1.98 0 3 0 C3 1.65 3 3.3 3 5 C3.66 5.33 4.32 5.66 5 6 C2.70774565 5.88628503 0.41617612 5.75869036 -1.875 5.625 C-3.15117188 5.55539062 -4.42734375 5.48578125 -5.7421875 5.4140625 C-9 5 -9 5 -11 3 C-9.02 3 -7.04 3 -5 3 C-5 2.67 -5 2.34 -5 2 C-3.35 2 -1.7 2 0 2 C0 1.34 0 0.68 0 0 Z " fill="#817133" transform="translate(653,928)"/>
<path d="M0 0 C1.32 0.33 2.64 0.66 4 1 C4 1.66 4 2.32 4 3 C5.0725 3.103125 6.145 3.20625 7.25 3.3125 C10.85820872 3.97400493 12.36395023 4.57483421 15 7 C9.04296875 8.7578125 9.04296875 8.7578125 7 9 C6.01 8.34 5.02 7.68 4 7 C4.99 7 5.98 7 7 7 C7 6.01 7 5.02 7 4 C5.02 4 3.04 4 1 4 C0.67 2.68 0.34 1.36 0 0 Z " fill="#776931" transform="translate(540,848)"/>
<path d="M0 0 C-0.99 1.485 -0.99 1.485 -2 3 C-1.67 3.66 -1.34 4.32 -1 5 C-5.21878192 5.19622241 -8.17010894 4.80230168 -12 3 C-8.08270009 -0.33695918 -5.0005885 -1.66686283 0 0 Z " fill="#84783F" transform="translate(600,777)"/>
<path d="M0 0 C0.99 0.33 1.98 0.66 3 1 C2.4375 3.8125 2.4375 3.8125 1 7 C-1.28536073 8.44088563 -3.40707624 9.13569208 -6 10 C-4.6302836 6.00499382 -2.74277578 3.19990508 0 0 Z " fill="#7C7136" transform="translate(508,822)"/>
<path d="M0 0 C2.31 0 4.62 0 7 0 C6.835 0.928125 6.67 1.85625 6.5 2.8125 C5.92251612 5.95621353 5.92251612 5.95621353 6 9 C5.34 9 4.68 9 4 9 C0.88002198 5.69649386 0 4.67590167 0 0 Z " fill="#52514D" transform="translate(866,796)"/>
<path d="M0 0 C-1 3 -1 3 -4.375 4.75 C-8 6 -8 6 -11 5 C-4.83050847 -1.61016949 -4.83050847 -1.61016949 0 0 Z " fill="#73682D" transform="translate(563,790)"/>
<path d="M0 0 C-0.6875 2.4375 -0.6875 2.4375 -2 5 C-4.625 5.8125 -4.625 5.8125 -7 6 C-7 5.01 -7 4.02 -7 3 C-7.66 2.34 -8.32 1.68 -9 1 C-5.57367167 -0.61798838 -3.61944899 -1.34053666 0 0 Z " fill="#877C43" transform="translate(569,787)"/>
<path d="M0 0 C6.30367803 0.58367389 11.98660063 2.04071619 18 4 C16 6 16 6 13.0625 6.3125 C9.49467578 5.9484363 9.38811559 5.38811559 7 3 C3.38976901 2.26958147 3.38976901 2.26958147 0 2 C0 1.34 0 0.68 0 0 Z " fill="#ADA16D" transform="translate(920,770)"/>
<path d="M0 0 C1.1446875 0.2475 1.1446875 0.2475 2.3125 0.5 C5.03596236 1.09145396 5.03596236 1.09145396 8 1 C7.67 1.33 7.34 1.66 7 2 C9.31 2.66 11.62 3.32 14 4 C14 4.33 14 4.66 14 5 C8.21101581 5.20674944 3.57067277 4.59162079 -2 3 C-1.34 2.01 -0.68 1.02 0 0 Z " fill="#8A7A39" transform="translate(698,936)"/>
<path d="M0 0 C0.66 0.66 1.32 1.32 2 2 C1.63318342 4.93453261 1.13562754 5.86437246 -1 8 C-0.34 8 0.32 8 1 8 C1 8.66 1 9.32 1 10 C-0.98 10 -2.96 10 -5 10 C-4.1875 6.5625 -4.1875 6.5625 -3 3 C-2.01 2.67 -1.02 2.34 0 2 C0 1.34 0 0.68 0 0 Z " fill="#A3965D" transform="translate(951,830)"/>
<path d="M0 0 C0.33 0 0.66 0 1 0 C1.33 3.63 1.66 7.26 2 11 C2.33 11 2.66 11 3 11 C3 13.64 3 16.28 3 19 C2.34 18.34 1.68 17.68 1 17 C0.34 17.66 -0.32 18.32 -1 19 C-0.67 12.73 -0.34 6.46 0 0 Z " fill="#7B7040" transform="translate(713,821)"/>
<path d="M0 0 C2.26274788 0.35355436 3.95088852 0.97544426 6 2 C6 1.34 6 0.68 6 0 C7.32 0.33 8.64 0.66 10 1 C10 2.65 10 4.3 10 6 C8.68 5.67 7.36 5.34 6 5 C6 4.34 6 3.68 6 3 C3.36 2.67 0.72 2.34 -2 2 C-1.34 1.34 -0.68 0.68 0 0 Z " fill="#827742" transform="translate(690,794)"/>
<path d="M0 0 C1.32 0.33 2.64 0.66 4 1 C3.67 2.32 3.34 3.64 3 5 C4.65 5 6.3 5 8 5 C8 5.33 8 5.66 8 6 C-0.03571429 8.27678571 -0.03571429 8.27678571 -4 7 C-3.525625 6.5875 -3.05125 6.175 -2.5625 5.75 C-0.83733482 3.817815 -0.43415125 2.51807725 0 0 Z " fill="#AB9D61" transform="translate(928,920)"/>
<path d="M0 0 C0.99 0 1.98 0 3 0 C3 5.28 3 10.56 3 16 C2.67 16 2.34 16 2 16 C0.40837921 10.42932723 -0.20674944 5.78898419 0 0 Z " fill="#BCB27A" transform="translate(1043,840)"/>
<path d="M0 0 C0.66 0.33 1.32 0.66 2 1 C1.57847656 1.60328125 1.15695312 2.2065625 0.72265625 2.828125 C0.17480469 3.62734375 -0.37304688 4.4265625 -0.9375 5.25 C-1.48277344 6.03890625 -2.02804687 6.8278125 -2.58984375 7.640625 C-3.89622441 9.82636993 -4.54980511 11.5153801 -5 14 C-5.66 14 -6.32 14 -7 14 C-7.33 14.66 -7.66 15.32 -8 16 C-7.125 10.25 -7.125 10.25 -6 8 C-5.34 8 -4.68 8 -4 8 C-3.896875 7.4225 -3.79375 6.845 -3.6875 6.25 C-2.90207202 3.67950842 -1.69495803 2.06342716 0 0 Z " fill="#9A8E5E" transform="translate(929,808)"/>
<path d="M0 0 C6.4 -0.36923077 6.4 -0.36923077 9.4375 1.5 C9.953125 1.995 10.46875 2.49 11 3 C6.375 6 6.375 6 3 6 C3 4.68 3 3.36 3 2 C2.01 1.34 1.02 0.68 0 0 Z " fill="#AC9F62" transform="translate(978,904)"/>
<path d="M0 0 C2.64 0 5.28 0 8 0 C8 2.31 8 4.62 8 7 C4.2047869 5.50902342 2.38957269 3.24299151 0 0 Z " fill="#7F6F37" transform="translate(608,840)"/>
<path d="M0 0 C4.20626034 1.50223584 5.73900021 4.28550034 8 8 C6.02 8.99 6.02 8.99 4 10 C3.34 8.35 2.68 6.7 2 5 C1.34 5.66 0.68 6.32 0 7 C0.185625 6.21625 0.37125 5.4325 0.5625 4.625 C1.25962266 2.02910225 1.25962266 2.02910225 0 0 Z " fill="#B6AC74" transform="translate(1024,812)"/>
<path d="M0 0 C3.53372712 1.96318174 6.24479785 4.04070881 9 7 C6.61888932 7.85039667 5.28649422 8.07366994 2.8125 7.4375 C1 6 1 6 0.25 2.875 C0.1675 1.92625 0.085 0.9775 0 0 Z " fill="#55524F" transform="translate(845,800)"/>
<path d="M0 0 C0.66 0.33 1.32 0.66 2 1 C2 3.31 2 5.62 2 8 C-1.68754757 7.50168276 -3.60490662 6.89932357 -6 4 C-5.38125 3.896875 -4.7625 3.79375 -4.125 3.6875 C-1.63473516 3.12474627 -1.63473516 3.12474627 0 0 Z " fill="#746733" transform="translate(606,832)"/>
<path d="M0 0 C0.33 0 0.66 0 1 0 C1.23268915 6.28260706 0.40454548 11.88019467 -1 18 C-1.66 18 -2.32 18 -3 18 C-2.88521587 15.93690624 -2.75773802 13.87451646 -2.625 11.8125 C-2.55539062 10.66394531 -2.48578125 9.51539063 -2.4140625 8.33203125 C-2.02490426 5.20040883 -1.3190149 2.84714191 0 0 Z " fill="#64624F" transform="translate(863,856)"/>
<path d="M0 0 C-0.33 0.66 -0.66 1.32 -1 2 C-1 3.32 -1 4.64 -1 6 C-3.475 5.01 -3.475 5.01 -6 4 C-6 2.68 -6 1.36 -6 0 C-3.50907189 -1.24546405 -2.58919267 -0.7767578 0 0 Z " fill="#7A6D2F" transform="translate(566,905)"/>
<path d="M0 0 C6.625 -0.25 6.625 -0.25 10 2 C5.8204355 4.78637633 3.85331323 3.79562512 -1 3 C-0.67 2.01 -0.34 1.02 0 0 Z " fill="#867637" transform="translate(609,923)"/>
<path d="M0 0 C0.66 0 1.32 0 2 0 C2.33 1.65 2.66 3.3 3 5 C3.66 5 4.32 5 5 5 C5.33 6.98 5.66 8.96 6 11 C5.34 10.34 4.68 9.68 4 9 C3.34 9.66 2.68 10.32 2 11 C1.34 7.37 0.68 3.74 0 0 Z " fill="#8A7C42" transform="translate(762,853)"/>
<path d="M0 0 C0.99 0.33 1.98 0.66 3 1 C3 1.66 3 2.32 3 3 C3.66 3 4.32 3 5 3 C5.66 4.32 6.32 5.64 7 7 C3.08788267 5.84414715 0.1254959 4.64465038 -3 2 C-2.01 2 -1.02 2 0 2 C0 1.34 0 0.68 0 0 Z " fill="#918352" transform="translate(841,794)"/>
<path d="M0 0 C-3.79541663 2.21399303 -7.75629421 3.00980198 -12 4 C-11.67 2.68 -11.34 1.36 -11 0 C-7.01803543 -1.05404945 -4.01804691 -0.84098656 0 0 Z " fill="#B4A46C" transform="translate(950,921)"/>
<path d="M0 0 C0.66 0 1.32 0 2 0 C1.8864371 1.64666203 1.75882619 3.29236082 1.625 4.9375 C1.52058594 6.31228516 1.52058594 6.31228516 1.4140625 7.71484375 C1.27742187 8.46894531 1.14078125 9.22304688 1 10 C0.01 10.495 0.01 10.495 -1 11 C-2.60080151 6.99799622 -1.29279692 3.95443764 0 0 Z " fill="#948542" transform="translate(764,824)"/>
<path d="M0 0 C0.66 0.33 1.32 0.66 2 1 C2 2.98 2 4.96 2 7 C-0.97 6.505 -0.97 6.505 -4 6 C-3.6875 4.125 -3.6875 4.125 -3 2 C-2.01 1.34 -1.02 0.68 0 0 Z " fill="#81753C" transform="translate(526,806)"/>
<path d="M0 0 C-0.66 1.32 -1.32 2.64 -2 4 C-3.65 3.67 -5.3 3.34 -7 3 C-7.33 2.01 -7.66 1.02 -8 0 C-4.94736336 -0.98120464 -3.05263664 -0.98120464 0 0 Z " fill="#A09157" transform="translate(885,764)"/>
<path d="M0 0 C2.62374802 5.24749603 3.09534716 8.08847633 3 14 C1.51171875 12.85546875 1.51171875 12.85546875 0 11 C-0.29296875 8.30078125 -0.29296875 8.30078125 -0.1875 5.3125 C-0.16042969 4.31863281 -0.13335938 3.32476563 -0.10546875 2.30078125 C-0.07066406 1.54152344 -0.03585937 0.78226563 0 0 Z " fill="#605C4C" transform="translate(861,818)"/>
<path d="M0 0 C3.3 0 6.6 0 10 0 C9.67 0.66 9.34 1.32 9 2 C9.66 2.66 10.32 3.32 11 4 C3.375 3.375 3.375 3.375 0 0 Z " fill="#877A3C" transform="translate(568,912)"/>
<path d="M0 0 C2.78637633 4.1795645 1.79562512 6.14668677 1 11 C-0.32 11 -1.64 11 -3 11 C-2.67 9.02 -2.34 7.04 -2 5 C-1.34 5 -0.68 5 0 5 C0 3.35 0 1.7 0 0 Z " fill="#9F8E57" transform="translate(862,869)"/>
<path d="M0 0 C1.9375 1.0625 1.9375 1.0625 4 3 C5.17321743 7.98617407 5.08933496 12.90790701 5 18 C4.67 18 4.34 18 4 18 C3.81824219 16.67935547 3.81824219 16.67935547 3.6328125 15.33203125 C3.46523438 14.17058594 3.29765625 13.00914062 3.125 11.8125 C2.96257813 10.66394531 2.80015625 9.51539063 2.6328125 8.33203125 C2.05939755 5.31275375 1.25240957 2.79424152 0 0 Z " fill="#5C5638" transform="translate(614,846)"/>
<path d="M0 0 C0.66 0.66 1.32 1.32 2 2 C1.01 3.485 1.01 3.485 0 5 C0 5.99 0 6.98 0 8 C-1.98 8.99 -1.98 8.99 -4 10 C-3.5205537 5.78087253 -2.83374881 3.20336822 0 0 Z " fill="#A5955E" transform="translate(942,844)"/>
<path d="M0 0 C0.66 0 1.32 0 2 0 C2.6875 1.625 2.6875 1.625 3 4 C1.5625 7.25 1.5625 7.25 0 10 C-1.2380014 6.42355152 -0.74926071 3.66305234 0 0 Z " fill="#8B7C49" transform="translate(771,808)"/>
<path d="M0 0 C2.64 0 5.28 0 8 0 C8 0.99 8 1.98 8 3 C5.36 3.33 2.72 3.66 0 4 C0 2.68 0 1.36 0 0 Z " fill="#A4955A" transform="translate(912,772)"/>
<path d="M0 0 C-0.33 0.66 -0.66 1.32 -1 2 C-2.258125 2.04125 -3.51625 2.0825 -4.8125 2.125 C-5.52019531 2.14820313 -6.22789062 2.17140625 -6.95703125 2.1953125 C-9 2 -9 2 -12 0 C-3.42857143 -1.28571429 -3.42857143 -1.28571429 0 0 Z " fill="#8C7E40" transform="translate(689,937)"/>
<path d="M0 0 C0.88336837 2.4667645 1.1312406 3.63859372 0.22265625 6.140625 C-0.16019531 6.83671875 -0.54304687 7.5328125 -0.9375 8.25 C-1.31777344 8.95640625 -1.69804688 9.6628125 -2.08984375 10.390625 C-2.39019531 10.92171875 -2.69054687 11.4528125 -3 12 C-3.66 12 -4.32 12 -5 12 C-3.68938409 7.76570244 -2.05643741 3.92592596 0 0 Z " fill="#504B3D" transform="translate(773,812)"/>
<path d="M0 0 C2.79872437 2.52788007 4.45773019 4.20411134 5 8 C3.68 8 2.36 8 1 8 C0 2.25 0 2.25 0 0 Z " fill="#5A594E" transform="translate(856,810)"/>
<path d="M0 0 C6.75 0.75 6.75 0.75 9 3 C6.1875 3.625 6.1875 3.625 3 4 C2.01 3.34 1.02 2.68 0 2 C0 1.34 0 0.68 0 0 Z " fill="#B7AA76" transform="translate(987,792)"/>
<path d="M0 0 C-3.625 3 -3.625 3 -7 3 C-7 3.66 -7 4.32 -7 5 C-7.99 4.67 -8.98 4.34 -10 4 C-10.33 3.34 -10.66 2.68 -11 2 C-7.17679443 0.57741188 -4.08718695 -0.24042276 0 0 Z " fill="#807339" transform="translate(580,783)"/>
<path d="M0 0 C-0.639375 0.28875 -1.27875 0.5775 -1.9375 0.875 C-4.15206079 1.82823451 -4.15206079 1.82823451 -5 4 C-6.65 4 -8.3 4 -10 4 C-10 3.01 -10 2.02 -10 1 C-6.59437148 0.22157062 -3.49234244 -0.09978121 0 0 Z " fill="#877C39" transform="translate(645,928)"/>
<path d="M0 0 C3.63 0 7.26 0 11 0 C10.67 0.99 10.34 1.98 10 3 C5.06071112 3.3367697 4.21507278 3.16130459 0 0 Z " fill="#897D42" transform="translate(592,920)"/>
<path d="M0 0 C2.5 1.8125 2.5 1.8125 5 4 C5 4.99 5 5.98 5 7 C4.01 7 3.02 7 2 7 C2 6.34 2 5.68 2 5 C1.34 5 0.68 5 0 5 C0 3.35 0 1.7 0 0 Z " fill="#928346" transform="translate(776,881)"/>
<path d="M0 0 C0.66 0 1.32 0 2 0 C2 0.66 2 1.32 2 2 C2.66 2 3.32 2 4 2 C4.66 3.98 5.32 5.96 6 8 C4.68 7.67 3.36 7.34 2 7 C2 6.01 2 5.02 2 4 C1.34 3.67 0.68 3.34 0 3 C0 2.01 0 1.02 0 0 Z " fill="#9B8D58" transform="translate(896,848)"/>
<path d="M0 0 C0.66 0.99 1.32 1.98 2 3 C0.35 4.65 -1.3 6.3 -3 8 C-3 7.01 -3 6.02 -3 5 C-3.66 4.34 -4.32 3.68 -5 3 C-3.35 2.01 -1.7 1.02 0 0 Z " fill="#46423D" transform="translate(704,848)"/>
<path d="M0 0 C0.33 0.66 0.66 1.32 1 2 C0.06421005 4.35981813 -0.93347808 6.69631264 -2 9 C-2.99 8.67 -3.98 8.34 -5 8 C-1.125 1.125 -1.125 1.125 0 0 Z " fill="#978D62" transform="translate(970,799)"/>
<path d="M0 0 C2.31 0.33 4.62 0.66 7 1 C7.33 1.99 7.66 2.98 8 4 C5.36 3.67 2.72 3.34 0 3 C0 2.01 0 1.02 0 0 Z " fill="#A59358" transform="translate(888,930)"/>
<path d="M0 0 C0.66 0 1.32 0 2 0 C2 3 2 3 -0.25 5.75 C-3 8 -3 8 -5.3125 7.8125 C-6.1478125 7.4103125 -6.1478125 7.4103125 -7 7 C-5.47005208 5.76302083 -3.94010417 4.52604167 -2.41015625 3.2890625 C-0.86733563 2.0333609 -0.86733563 2.0333609 0 0 Z " fill="#807535" transform="translate(614,880)"/>
<path d="M0 0 C0.93065133 2.60582371 1.14917407 3.64198224 0.0625 6.25 C-0.4634375 7.11625 -0.4634375 7.11625 -1 8 C-1.66 8 -2.32 8 -3 8 C-3.33 8.99 -3.66 9.98 -4 11 C-3.48964169 6.6109185 -2.47785723 3.66291938 0 0 Z " fill="#7F784E" transform="translate(803,821)"/>
<path d="M0 0 C0.33 0 0.66 0 1 0 C1.20086443 3.71599191 1.1519437 4.77208445 -1 8 C-1.99 8 -2.98 8 -4 8 C-4 7.34 -4 6.68 -4 6 C-3.34 6 -2.68 6 -2 6 C-1.855625 5.195625 -1.71125 4.39125 -1.5625 3.5625 C-1 1 -1 1 0 0 Z " fill="#636053" transform="translate(926,816)"/>
<path d="M0 0 C-2 3 -2 3 -3.9453125 3.51171875 C-4.66460938 3.56972656 -5.38390625 3.62773438 -6.125 3.6875 C-8.043125 3.8421875 -8.043125 3.8421875 -10 4 C-7.39928297 0.98864344 -3.94054294 -1.97027147 0 0 Z " fill="#908550" transform="translate(554,793)"/>
<path d="M0 0 C0.598125 0.20625 1.19625 0.4125 1.8125 0.625 C1.8125 1.615 1.8125 2.605 1.8125 3.625 C-0.8275 3.625 -3.4675 3.625 -6.1875 3.625 C-4.74381887 0.73763775 -3.28406529 -0.56298262 0 0 Z " fill="#A59A59" transform="translate(950.1875,780.375)"/>
<path d="M0 0 C1.32 0.33 2.64 0.66 4 1 C4 1.66 4 2.32 4 3 C6.31 3.33 8.62 3.66 11 4 C7.42355152 5.2380014 4.66305234 4.74926071 1 4 C0.67 2.68 0.34 1.36 0 0 Z " fill="#635A30" transform="translate(540,848)"/>
<path d="M0 0 C6.64615385 1.47692308 6.64615385 1.47692308 8.4375 4.125 C8.7159375 5.053125 8.7159375 5.053125 9 6 C5.06326356 4.68775452 2.77280706 3.08089673 0 0 Z " fill="#ECE9CF" transform="translate(1010,802)"/>
<path d="M0 0 C0.66 0.33 1.32 0.66 2 1 C-2.30769231 5.92307692 -2.30769231 5.92307692 -5.8125 6.3125 C-6.8953125 6.1578125 -6.8953125 6.1578125 -8 6 C-5.33333333 4 -2.66666667 2 0 0 Z " fill="#F2EDD3" transform="translate(1014,893)"/>
<path d="M0 0 C1.32 0 2.64 0 4 0 C3.42655063 2.86724686 3.1385485 3.8614515 1 6 C0 5 0 5 -0.0625 2.4375 C-0.041875 1.633125 -0.02125 0.82875 0 0 Z " fill="#424444" transform="translate(770,864)"/>
<path d="M0 0 C0.99 0.33 1.98 0.66 3 1 C3 1.66 3 2.32 3 3 C3.66 3 4.32 3 5 3 C5 4.32 5 5.64 5 7 C4.34 7 3.68 7 3 7 C2.896875 6.360625 2.79375 5.72125 2.6875 5.0625 C2.460625 4.381875 2.23375 3.70125 2 3 C1.01 2.67 0.02 2.34 -1 2 C-0.67 1.34 -0.34 0.68 0 0 Z " fill="#9A8D56" transform="translate(873,813)"/>
<path d="M0 0 C0 0.99 0 1.98 0 3 C-2.97 2.505 -2.97 2.505 -6 2 C-6 1.34 -6 0.68 -6 0 C-3.50907189 -1.24546405 -2.58919267 -0.7767578 0 0 Z " fill="#837638" transform="translate(656,765)"/>
<path d="M0 0 C0.99 0 1.98 0 3 0 C3 1.65 3 3.3 3 5 C1.68 5 0.36 5 -1 5 C-0.67 3.35 -0.34 1.7 0 0 Z " fill="#87763C" transform="translate(653,928)"/>
<path d="M0 0 C-5.078125 3.3203125 -5.078125 3.3203125 -7 4 C-9.234375 3.1171875 -9.234375 3.1171875 -11 2 C-9.54494642 1.47007308 -8.08581873 0.9513211 -6.625 0.4375 C-5.81289063 0.14746094 -5.00078125 -0.14257812 -4.1640625 -0.44140625 C-2 -1 -2 -1 0 0 Z " fill="#807241" transform="translate(696,860)"/>
<path d="M0 0 C0 3 0 3 -2 6 C-2.99 5.67 -3.98 5.34 -5 5 C-4.1875 3.0625 -4.1875 3.0625 -3 1 C-2.01 0.67 -1.02 0.34 0 0 Z " fill="#6A6658" transform="translate(941,844)"/>
<path d="M0 0 C0.66 0.66 1.32 1.32 2 2 C0.25 6.875 0.25 6.875 -2 8 C-2.125 5.125 -2.125 5.125 -2 2 C-1.34 1.34 -0.68 0.68 0 0 Z " fill="#656258" transform="translate(946,832)"/>
<path d="M0 0 C0.5534764 2.07553648 1 3.84365964 1 6 C-0.98 6.99 -0.98 6.99 -3 8 C-2.45276317 4.62537285 -1.9451 2.91765 0 0 Z " fill="#6A6659" transform="translate(935,800)"/>
<path d="M0 0 C0.99 0.33 1.98 0.66 3 1 C2.67 1.66 2.34 2.32 2 3 C1.01 3 0.02 3 -1 3 C-1.33 3.66 -1.66 4.32 -2 5 C-2.99 4.34 -3.98 3.68 -5 3 C-2.6875 1.4375 -2.6875 1.4375 0 0 Z " fill="#837748" transform="translate(538,799)"/>
<path d="M0 0 C-3.25 1.625 -3.25 1.625 -7 3 C-9.234375 2.0859375 -9.234375 2.0859375 -11 1 C-9.5437328 0.63743142 -8.08488815 0.28520207 -6.625 -0.0625 C-5.40683594 -0.35833984 -5.40683594 -0.35833984 -4.1640625 -0.66015625 C-2 -1 -2 -1 0 0 Z " fill="#7B6F30" transform="translate(622,772)"/>
</svg>
